<?xml version="1.0" encoding="utf-8"?>
<!-- Generator: Adobe Illustrator 16.0.0, SVG Export Plug-In . SVG Version: 6.00 Build 0)  -->
<!DOCTYPE svg PUBLIC "-//W3C//DTD SVG 1.1//EN" "http://www.w3.org/Graphics/SVG/1.1/DTD/svg11.dtd">
<svg version="1.1" xmlns="http://www.w3.org/2000/svg" xmlns:xlink="http://www.w3.org/1999/xlink" x="0px" y="0px"
	 width="361.512px" height="196px" viewBox="0 0 361.512 196" enable-background="new 0 0 361.512 196" xml:space="preserve">
<g id="Layer_1">
	<g enable-background="new    ">
		<path fill="#939598" d="M9.169,121.48c0.117,0.541,0.201,1.205,0.203,1.959c0.011,2.779-1.322,3.469-4.376,3.508
			c-3.058,0.039-4.394-0.619-4.404-3.396c-0.002-0.742,0.072-1.419,0.182-1.963l0.757,0.078c-0.068,0.471-0.133,1.007-0.131,1.506
			c0.01,2.641,1.277,2.838,3.593,2.809c2.322-0.028,3.581-0.301,3.571-2.899c-0.002-0.506-0.063-1.011-0.139-1.505L9.169,121.48z"/>
	</g>
	<g enable-background="new    ">
		<path fill="#939598" d="M5.982,120.465c-2.386,0.03-3.378-0.674-3.386-2.834c-0.009-2.227,1.152-2.843,2.95-2.865
			c0.185-0.002,0.429,0.002,0.624,0.01c0.129,0.752,0.282,2.31,0.323,3.229l0.068,1.559c1.347-0.129,2.037-0.543,2.03-2.201
			c-0.003-0.857-0.099-1.646-0.193-2.32l0.723-0.09c0.117,0.751,0.224,1.507,0.228,2.751C9.358,119.854,7.932,120.439,5.982,120.465
			z M5.795,117.854c-0.027-0.576-0.108-1.564-0.189-2.17c-0.133-0.01-0.325-0.01-0.462-0.009c-1.114,0.015-1.821,0.511-1.815,1.947
			c0.006,1.653,0.856,1.989,2.556,1.969L5.795,117.854z"/>
	</g>
	<g enable-background="new    ">
		<path fill="#939598" d="M9.24,112.173l0.003,0.894l-4.991,0.063c-0.385,0.006-0.761-0.001-1.123-0.019
			c-0.327-0.741-0.557-1.78-0.561-2.963c-0.009-2.24,1.05-2.483,2.383-2.5l4.271-0.055l0.003,0.897l-4.109,0.052
			c-1.24,0.016-1.801,0.244-1.794,1.895c0.002,0.547,0.142,1.373,0.328,1.78c0.311,0.015,0.721,0.017,1.03,0.013L9.24,112.173z"/>
	</g>
	<g enable-background="new    ">
		<path fill="#939598" d="M0.777,104.318l1.857-0.023l-0.006-1.467l0.709-0.01l0.006,1.467l4.113-0.053
			c0.938-0.013,1.105-0.336,1.103-1.133c0-0.121-0.008-0.24-0.02-0.357l0.683-0.082c0.037,0.221,0.071,0.492,0.072,0.711
			c0.005,1.215-0.518,1.738-1.713,1.754l-4.235,0.054l0.005,1.204l-0.709,0.01l-0.005-1.205l-1.714,0.021L0.777,104.318z"/>
	</g>
	<g enable-background="new    ">
		<path fill="#939598" d="M4.208,100.551c0.878-0.012,0.972-0.688,1.26-1.638c0.405-1.327,0.738-2.077,1.953-2.093
			c1.45-0.018,1.854,1.055,1.858,2.487c0.003,0.707-0.061,1.401-0.209,2.098l-0.706-0.08c0.087-0.539,0.151-1.146,0.149-1.693
			c-0.003-0.771-0.008-1.909-1.038-1.896c-0.834,0.011-0.98,0.596-1.282,1.626c-0.307,1.039-0.547,2.068-1.898,2.084
			c-1.373,0.019-1.764-0.926-1.769-2.252c-0.004-0.826,0.067-1.44,0.209-2.145l0.695,0.08c-0.083,0.492-0.155,1.047-0.153,1.648
			C3.28,99.531,3.303,100.563,4.208,100.551z"/>
	</g>
	<g enable-background="new    ">
		<path fill="#939598" d="M11.58,90.828l0.003,0.89l-7.436,0.094c-0.384,0.005-0.761-0.001-1.122-0.019
			c-0.384-0.719-0.534-1.633-0.538-2.464c-0.008-2.09,0.805-2.975,3.368-3.008c2.515-0.032,3.377,0.754,3.385,2.715
			c0.002,0.624-0.093,1.238-0.241,1.824L11.58,90.828z M8.5,89.334c-0.007-1.828-0.799-2.136-2.642-2.112
			c-1.766,0.022-2.635,0.466-2.629,2.098c0.002,0.51,0.097,1.136,0.302,1.584c0.314,0.011,0.724,0.017,1.034,0.013l3.682-0.047
			C8.386,90.458,8.502,89.84,8.5,89.334z"/>
	</g>
	<g enable-background="new    ">
		<path fill="#939598" d="M5.847,84.892c-2.386,0.03-3.378-0.673-3.386-2.833c-0.009-2.227,1.152-2.843,2.95-2.866
			c0.185-0.002,0.429,0.002,0.624,0.011c0.129,0.751,0.282,2.308,0.323,3.227l0.068,1.557c1.347-0.128,2.037-0.543,2.03-2.201
			c-0.003-0.857-0.099-1.646-0.193-2.32l0.723-0.09c0.117,0.751,0.224,1.507,0.228,2.751C9.223,84.28,7.796,84.867,5.847,84.892z
			 M5.659,82.28c-0.027-0.576-0.108-1.565-0.189-2.169c-0.133-0.009-0.325-0.01-0.462-0.009c-1.114,0.014-1.821,0.511-1.815,1.947
			c0.006,1.654,0.856,1.99,2.556,1.969L5.659,82.28z"/>
	</g>
	<g enable-background="new    ">
		<path fill="#939598" d="M9.106,77.498l-5.014,0.063c-0.384,0.005-0.761-0.001-1.122-0.022c-0.384-0.719-0.534-1.633-0.537-2.46
			c-0.001-0.218,0.005-0.421,0.026-0.613L3.22,74.53c-0.018,0.163-0.023,0.34-0.022,0.54c0.002,0.506,0.1,1.136,0.305,1.58
			c0.31,0.015,0.724,0.017,1.034,0.013l4.566-0.058L9.106,77.498z"/>
	</g>
	<g enable-background="new    ">
		<path fill="#939598" d="M5.526,68.797l-3.038-2.823l-0.005-1.082l3.224,3.039l3.352-3.314l0.004,1.171l-3.089,3.004l3.101-0.039
			l0.003,0.89l-9.116,0.116l-0.003-0.89L5.526,68.797z"/>
	</g>
	<g enable-background="new    ">
		<path fill="#939598" d="M7.864,61.148l-5.812-1.78C1.604,59.23,1.411,59.04,1.41,58.715c-0.001-0.321,0.193-0.527,0.636-0.669
			l5.794-1.861l-7.424-1.553L0.413,53.71l8.031,1.752c0.469,0.101,0.669,0.334,0.67,0.674c0.002,0.34-0.209,0.562-0.661,0.707
			l-5.806,1.879l5.819,1.78c0.454,0.138,0.666,0.35,0.667,0.689c0.001,0.34-0.205,0.579-0.661,0.692l-8.021,1.985l-0.004-0.96
			L7.864,61.148z"/>
	</g>
	<g enable-background="new    ">
		<path fill="#939598" d="M0.387,46.621l-0.004-0.949l8.603-0.109l0.004,0.949l-4.006,0.051L5,51.035l4.006-0.051l0.004,0.949
			l-8.603,0.109l-0.004-0.949l3.803-0.048l-0.017-4.472L0.387,46.621z"/>
	</g>
	<g>
		<path fill="#808184" d="M40.714,189.887c0,0.693,0.3,0.813,1.208,1.073c0.854,0.244,1.463,0.587,1.463,1.515
			c0,1.084-0.668,1.482-1.868,1.482c-0.563,0-0.935-0.043-1.346-0.125l0.057-0.474c0.416,0.061,0.883,0.099,1.267,0.099
			c0.752,0,1.287-0.171,1.287-0.955c0-0.654-0.447-0.833-1.166-1.05c-0.933-0.28-1.483-0.524-1.483-1.464
			c0-1.057,0.644-1.402,1.795-1.402c0.472,0,0.955,0.055,1.33,0.12l-0.052,0.465c-0.321-0.047-0.693-0.09-1.048-0.09
			C41.394,189.081,40.714,189.183,40.714,189.887z"/>
		<path fill="#808184" d="M44.285,191.891c0-1.505,0.47-2.064,1.766-2.064c1.298,0,1.766,0.58,1.766,2.064
			c0,1.477-0.467,2.066-1.766,2.066C44.754,193.957,44.285,193.396,44.285,191.891z M47.266,191.891
			c0-1.223-0.289-1.602-1.215-1.602c-0.906,0-1.213,0.325-1.213,1.602c0,1.273,0.307,1.603,1.213,1.603
			C46.97,193.493,47.266,193.114,47.266,191.891z"/>
		<path fill="#808184" d="M48.87,189.88h0.549v2.514c0,0.759,0.136,1.103,1.143,1.103c0.33,0,0.829-0.084,1.079-0.196
			c0.011-0.19,0.016-0.44,0.016-0.631v-2.789h0.546v3.054c0,0.234-0.007,0.465-0.021,0.687c-0.456,0.198-1.088,0.337-1.807,0.337
			c-1.368,0-1.506-0.648-1.506-1.464V189.88z"/>
		<path fill="#808184" d="M53.401,193.902v-3.066c0-0.235,0.007-0.466,0.022-0.687c0.443-0.233,1.003-0.323,1.509-0.323
			c0.133,0,0.257,0.005,0.375,0.018l-0.045,0.466c-0.1-0.012-0.208-0.016-0.33-0.016c-0.31,0-0.696,0.059-0.969,0.183
			c-0.012,0.189-0.016,0.442-0.016,0.632v2.794H53.401z"/>
		<path fill="#808184" d="M58.586,193.839c-0.32,0.065-0.637,0.118-1.052,0.118c-1.355,0-1.605-0.953-1.605-2.109
			c0-1.317,0.298-2.021,1.75-2.021c0.354,0,0.65,0.047,0.901,0.115l-0.045,0.42c-0.178-0.031-0.452-0.067-0.671-0.067
			c-1.258,0-1.379,0.44-1.379,1.554c0,1.045,0.092,1.635,1.373,1.635c0.205,0,0.483-0.045,0.677-0.086L58.586,193.839z"/>
		<path fill="#808184" d="M59.249,191.891c0-1.459,0.438-2.064,1.759-2.064c1.362,0,1.729,0.711,1.729,1.812
			c0,0.112-0.004,0.262-0.011,0.381c-0.46,0.077-1.414,0.167-1.976,0.19l-0.953,0.038c0.068,0.824,0.316,1.246,1.33,1.246
			c0.524,0,1.007-0.056,1.42-0.112l0.05,0.442c-0.461,0.07-0.924,0.134-1.685,0.134C59.597,193.957,59.249,193.083,59.249,191.891z
			 M60.848,191.782c0.353-0.017,0.958-0.063,1.328-0.111c0.007-0.081,0.009-0.198,0.009-0.282c0-0.682-0.298-1.115-1.176-1.115
			c-1.012,0-1.224,0.52-1.224,1.558L60.848,191.782z"/>
		<path fill="#808184" d="M63.706,190.716c0-0.296,0.075-0.402,0.33-0.402c0.255,0,0.33,0.106,0.33,0.402s-0.068,0.397-0.33,0.397
			C63.773,191.113,63.706,191.012,63.706,190.716z M63.706,193.559c0-0.295,0.075-0.401,0.33-0.401c0.255,0,0.33,0.106,0.33,0.401
			c0,0.296-0.068,0.398-0.33,0.398C63.773,193.957,63.706,193.854,63.706,193.559z"/>
		<path fill="#808184" d="M71.494,192.202c0,1.391-0.75,1.755-1.899,1.755c-1.145,0-1.897-0.364-1.897-1.755v-3.562h0.574v3.62
			c0,0.815,0.375,1.199,1.324,1.199c0.957,0,1.323-0.384,1.323-1.199v-3.62h0.576V192.202z"/>
		<path fill="#808184" d="M72.528,193.559c0-0.295,0.075-0.401,0.33-0.401c0.255,0,0.332,0.106,0.332,0.401
			c0,0.296-0.07,0.398-0.332,0.398C72.596,193.957,72.528,193.854,72.528,193.559z"/>
		<path fill="#808184" d="M74.69,189.887c0,0.693,0.3,0.813,1.208,1.073c0.854,0.244,1.463,0.587,1.463,1.515
			c0,1.084-0.668,1.482-1.868,1.482c-0.563,0-0.935-0.043-1.346-0.125l0.057-0.474c0.416,0.061,0.883,0.099,1.267,0.099
			c0.752,0,1.288-0.171,1.288-0.955c0-0.654-0.447-0.833-1.166-1.05c-0.933-0.28-1.483-0.524-1.483-1.464
			c0-1.057,0.644-1.402,1.795-1.402c0.472,0,0.956,0.055,1.331,0.12l-0.052,0.465c-0.32-0.047-0.693-0.09-1.048-0.09
			C75.37,189.081,74.69,189.183,74.69,189.887z"/>
		<path fill="#808184" d="M78.272,193.559c0-0.295,0.074-0.401,0.33-0.401c0.255,0,0.332,0.106,0.332,0.401
			c0,0.296-0.07,0.398-0.332,0.398C78.339,193.957,78.272,193.854,78.272,193.559z"/>
		<path fill="#808184" d="M85.22,189.112h-1.319c-0.969,0-1.127,0.174-1.127,1.008v0.867h2.337v0.472h-2.337v0.971
			c0,0.831,0.158,1.001,1.127,1.001h1.319v0.46c-0.418,0.019-0.895,0.025-1.296,0.025c-0.89,0-1.73-0.045-1.73-1.161v-2.963
			c0-1.115,0.84-1.165,1.73-1.165c0.336,0,0.865,0.014,1.296,0.031V189.112z"/>
		<path fill="#808184" d="M86.763,193.902h-0.546v-3.053c0-0.235,0.006-0.466,0.02-0.688c0.456-0.198,1.093-0.336,1.816-0.336
			c1.371,0,1.511,0.648,1.511,1.463v2.613h-0.549v-2.514c0-0.759-0.136-1.102-1.145-1.102c-0.334,0-0.84,0.083-1.091,0.196
			c-0.011,0.189-0.016,0.44-0.016,0.63V193.902z"/>
		<path fill="#808184" d="M90.619,191.891c0-1.459,0.438-2.064,1.759-2.064c1.362,0,1.73,0.711,1.73,1.812
			c0,0.112-0.005,0.262-0.012,0.381c-0.46,0.077-1.414,0.167-1.976,0.19l-0.953,0.038c0.067,0.824,0.316,1.246,1.33,1.246
			c0.524,0,1.007-0.056,1.42-0.112l0.05,0.442c-0.461,0.07-0.924,0.134-1.685,0.134C90.966,193.957,90.619,193.083,90.619,191.891z
			 M92.217,191.782c0.353-0.017,0.958-0.063,1.328-0.111c0.007-0.081,0.009-0.198,0.009-0.282c0-0.682-0.298-1.115-1.176-1.115
			c-1.012,0-1.224,0.52-1.224,1.558L92.217,191.782z"/>
		<path fill="#808184" d="M95.121,193.902v-3.066c0-0.235,0.007-0.466,0.022-0.687c0.443-0.233,1.003-0.323,1.509-0.323
			c0.133,0,0.257,0.005,0.375,0.018l-0.045,0.466c-0.1-0.012-0.208-0.016-0.33-0.016c-0.31,0-0.696,0.059-0.969,0.183
			c-0.012,0.189-0.016,0.442-0.016,0.632v2.794H95.121z"/>
		<path fill="#808184" d="M97.941,194.857c0.429,0.065,0.906,0.122,1.369,0.122c0.872,0,1.095-0.271,1.095-0.931v-0.334
			c-0.357,0.093-0.729,0.151-1.111,0.151c-1.192,0-1.689-0.501-1.689-2.019c0-1.527,0.546-2.021,1.813-2.021
			c0.508,0,1.068,0.09,1.511,0.323c0.014,0.221,0.022,0.451,0.022,0.687v3.38c0,1.003-0.677,1.222-1.533,1.222
			c-0.571,0-1.068-0.069-1.527-0.145L97.941,194.857z M98.158,191.848c0,1.102,0.203,1.564,1.31,1.564
			c0.31,0,0.687-0.072,0.938-0.158v-2.161c0-0.189-0.007-0.44-0.016-0.632c-0.273-0.124-0.66-0.181-0.971-0.181
			C98.429,190.28,98.158,190.802,98.158,191.848z"/>
		<path fill="#808184" d="M104.685,189.88h0.556l-1.872,5.504h-0.556l0.61-1.764l-1.626-3.74h0.585l1.292,3.024L104.685,189.88z"/>
		<path fill="#808184" d="M108.271,188.641h0.581v5.262h-0.581V188.641z"/>
		<path fill="#808184" d="M110.604,193.902h-0.547v-3.053c0-0.235,0.007-0.466,0.021-0.688c0.456-0.198,1.093-0.336,1.816-0.336
			c1.371,0,1.511,0.648,1.511,1.463v2.613h-0.549v-2.514c0-0.759-0.136-1.102-1.145-1.102c-0.334,0-0.84,0.083-1.091,0.196
			c-0.011,0.189-0.016,0.44-0.016,0.63V193.902z"/>
		<path fill="#808184" d="M115.465,189.88h0.903v0.434h-0.903v3.589h-0.549v-3.589h-0.713v-0.434h0.713v-0.431
			c0-0.764,0.389-1.177,1.161-1.177c0.097,0,0.237,0.009,0.343,0.027l-0.042,0.406h-0.19c-0.447,0-0.723,0.198-0.723,0.721V189.88z"
			/>
		<path fill="#808184" d="M117.003,191.891c0-1.505,0.47-2.064,1.766-2.064c1.298,0,1.766,0.58,1.766,2.064
			c0,1.477-0.467,2.066-1.766,2.066C117.473,193.957,117.003,193.396,117.003,191.891z M119.984,191.891
			c0-1.223-0.289-1.602-1.215-1.602c-0.906,0-1.213,0.325-1.213,1.602c0,1.273,0.307,1.603,1.213,1.603
			C119.688,193.493,119.984,193.114,119.984,191.891z"/>
		<path fill="#808184" d="M121.604,193.902v-3.066c0-0.235,0.007-0.466,0.022-0.687c0.443-0.233,1.003-0.323,1.509-0.323
			c0.133,0,0.257,0.005,0.375,0.018l-0.045,0.466c-0.1-0.012-0.208-0.016-0.33-0.016c-0.31,0-0.696,0.059-0.969,0.183
			c-0.012,0.189-0.016,0.442-0.016,0.632v2.794H121.604z"/>
		<path fill="#808184" d="M124.872,193.902h-0.546v-3.053c0-0.235,0.007-0.466,0.022-0.688c0.432-0.185,1.091-0.336,1.653-0.336
			c0.51,0,0.835,0.122,1.041,0.325c0.402-0.196,0.926-0.325,1.477-0.325c1.206,0,1.384,0.668,1.384,1.463v2.613h-0.546v-2.516
			c0-0.764-0.19-1.098-1.01-1.098c-0.291,0-0.713,0.084-1.057,0.267c0.074,0.217,0.097,0.468,0.097,0.733v2.613h-0.549v-2.516
			c0-0.764-0.188-1.098-1.01-1.098c-0.253,0-0.693,0.084-0.941,0.194c-0.011,0.189-0.016,0.44-0.016,0.63V193.902z"/>
		<path fill="#808184" d="M131.112,189.966c0.458-0.072,0.924-0.14,1.495-0.14c0.855,0,1.533,0.219,1.533,1.222v1.899
			c0,0.234-0.009,0.465-0.022,0.687c-0.475,0.234-1.039,0.323-1.68,0.323c-1.077,0-1.567-0.33-1.567-1.202
			c0-0.697,0.293-1.138,1.012-1.246c0.49-0.075,1.104-0.098,1.719-0.118v-0.178c0-0.657-0.224-0.929-1.095-0.929
			c-0.465,0-0.915,0.055-1.344,0.115L131.112,189.966z M132.496,193.51c0.35,0,0.743-0.046,1.088-0.181
			c0.011-0.192,0.016-0.443,0.016-0.633v-0.895c-0.461,0.01-1.104,0.022-1.527,0.108c-0.458,0.093-0.659,0.275-0.659,0.831
			C131.415,193.36,131.74,193.51,132.496,193.51z"/>
		<path fill="#808184" d="M136.225,188.744v1.136h0.896v0.434h-0.896v2.517c0,0.573,0.196,0.677,0.684,0.677
			c0.075,0,0.147-0.004,0.219-0.011l0.045,0.418c-0.135,0.022-0.303,0.043-0.436,0.043c-0.743,0-1.06-0.321-1.06-1.053v-2.591
			h-0.736v-0.434h0.736v-1.048L136.225,188.744z"/>
		<path fill="#808184" d="M137.98,188.675c0-0.296,0.075-0.402,0.33-0.402c0.255,0,0.332,0.106,0.332,0.402s-0.07,0.397-0.332,0.397
			C138.048,189.072,137.98,188.971,137.98,188.675z M138.037,189.88h0.549v4.022h-0.549V189.88z"/>
		<path fill="#808184" d="M139.631,191.891c0-1.505,0.47-2.064,1.766-2.064c1.298,0,1.766,0.58,1.766,2.064
			c0,1.477-0.467,2.066-1.766,2.066C140.101,193.957,139.631,193.396,139.631,191.891z M142.612,191.891
			c0-1.223-0.289-1.602-1.215-1.602c-0.906,0-1.213,0.325-1.213,1.602c0,1.273,0.307,1.603,1.213,1.603
			C142.316,193.493,142.612,193.114,142.612,191.891z"/>
		<path fill="#808184" d="M144.781,193.902h-0.546v-3.053c0-0.235,0.006-0.466,0.02-0.688c0.456-0.198,1.093-0.336,1.816-0.336
			c1.371,0,1.511,0.648,1.511,1.463v2.613h-0.549v-2.514c0-0.759-0.136-1.102-1.145-1.102c-0.334,0-0.84,0.083-1.091,0.196
			c-0.011,0.189-0.016,0.44-0.016,0.63V193.902z"/>
		<path fill="#808184" d="M150.533,193.902l1.822-4.921c0.097-0.265,0.246-0.396,0.461-0.396c0.214,0,0.368,0.129,0.465,0.396
			l1.797,4.921h-0.619l-0.542-1.513h-2.25l-0.542,1.513H150.533z M153.753,191.927l-0.958-2.674l-0.959,2.674H153.753z"/>
		<path fill="#808184" d="M158.437,188.326h0.547v4.621c0,0.234-0.009,0.465-0.023,0.687c-0.442,0.232-1.002,0.323-1.511,0.323
			c-1.276,0-1.813-0.5-1.813-2.066c0-1.538,0.488-2.064,1.687-2.064c0.384,0,0.757,0.059,1.113,0.151V188.326z M157.5,190.28
			c-1.118,0-1.31,0.483-1.31,1.61c0,1.079,0.262,1.612,1.26,1.612c0.312,0,0.698-0.057,0.971-0.181
			c0.009-0.192,0.016-0.443,0.016-0.633v-2.251C158.186,190.353,157.809,190.28,157.5,190.28z"/>
		<path fill="#808184" d="M160.734,193.902h-0.546v-3.053c0-0.235,0.007-0.466,0.022-0.688c0.432-0.185,1.091-0.336,1.653-0.336
			c0.51,0,0.835,0.122,1.041,0.325c0.402-0.196,0.926-0.325,1.477-0.325c1.206,0,1.384,0.668,1.384,1.463v2.613h-0.546v-2.516
			c0-0.764-0.19-1.098-1.01-1.098c-0.291,0-0.713,0.084-1.057,0.267c0.074,0.217,0.097,0.468,0.097,0.733v2.613h-0.549v-2.516
			c0-0.764-0.188-1.098-1.01-1.098c-0.253,0-0.693,0.084-0.941,0.194c-0.011,0.189-0.016,0.44-0.016,0.63V193.902z"/>
		<path fill="#808184" d="M166.918,188.675c0-0.296,0.075-0.402,0.33-0.402c0.255,0,0.332,0.106,0.332,0.402
			s-0.07,0.397-0.332,0.397C166.986,189.072,166.918,188.971,166.918,188.675z M166.975,189.88h0.549v4.022h-0.549V189.88z"/>
		<path fill="#808184" d="M169.227,193.902h-0.546v-3.053c0-0.235,0.006-0.466,0.02-0.688c0.456-0.198,1.093-0.336,1.816-0.336
			c1.371,0,1.511,0.648,1.511,1.463v2.613h-0.549v-2.514c0-0.759-0.136-1.102-1.145-1.102c-0.334,0-0.84,0.083-1.091,0.196
			c-0.011,0.189-0.016,0.44-0.016,0.63V193.902z"/>
		<path fill="#808184" d="M173.134,188.675c0-0.296,0.075-0.402,0.33-0.402c0.255,0,0.332,0.106,0.332,0.402
			s-0.07,0.397-0.332,0.397C173.202,189.072,173.134,188.971,173.134,188.675z M173.191,189.88h0.549v4.022h-0.549V189.88z"/>
		<path fill="#808184" d="M175.257,190.852c0,0.537,0.414,0.596,0.992,0.774c0.809,0.251,1.265,0.456,1.265,1.199
			c0,0.888-0.66,1.132-1.536,1.132c-0.432,0-0.856-0.041-1.28-0.134l0.054-0.432c0.33,0.055,0.7,0.095,1.035,0.095
			c0.472,0,1.167,0,1.167-0.63c0-0.51-0.357-0.601-0.985-0.788c-0.632-0.189-1.26-0.339-1.26-1.165c0-0.84,0.58-1.077,1.391-1.077
			c0.506,0,0.88,0.045,1.31,0.133l-0.054,0.425c-0.3-0.052-0.639-0.097-1.007-0.097
			C175.888,190.287,175.257,190.298,175.257,190.852z"/>
		<path fill="#808184" d="M179.492,188.744v1.136h0.896v0.434h-0.896v2.517c0,0.573,0.196,0.677,0.684,0.677
			c0.075,0,0.147-0.004,0.219-0.011l0.045,0.418c-0.135,0.022-0.303,0.043-0.436,0.043c-0.743,0-1.06-0.321-1.06-1.053v-2.591
			h-0.736v-0.434h0.736v-1.048L179.492,188.744z"/>
		<path fill="#808184" d="M181.308,193.902v-3.066c0-0.235,0.007-0.466,0.022-0.687c0.443-0.233,1.003-0.323,1.509-0.323
			c0.133,0,0.257,0.005,0.375,0.018l-0.045,0.466c-0.1-0.012-0.208-0.016-0.33-0.016c-0.31,0-0.696,0.059-0.969,0.183
			c-0.011,0.189-0.016,0.442-0.016,0.632v2.794H181.308z"/>
		<path fill="#808184" d="M184.049,189.966c0.458-0.072,0.924-0.14,1.495-0.14c0.855,0,1.533,0.219,1.533,1.222v1.899
			c0,0.234-0.009,0.465-0.022,0.687c-0.475,0.234-1.039,0.323-1.68,0.323c-1.077,0-1.567-0.33-1.567-1.202
			c0-0.697,0.293-1.138,1.012-1.246c0.49-0.075,1.104-0.098,1.719-0.118v-0.178c0-0.657-0.224-0.929-1.095-0.929
			c-0.465,0-0.915,0.055-1.344,0.115L184.049,189.966z M185.434,193.51c0.35,0,0.743-0.046,1.088-0.181
			c0.011-0.192,0.016-0.443,0.016-0.633v-0.895c-0.461,0.01-1.104,0.022-1.527,0.108c-0.458,0.093-0.659,0.275-0.659,0.831
			C184.352,193.36,184.677,193.51,185.434,193.51z"/>
		<path fill="#808184" d="M189.163,188.744v1.136h0.896v0.434h-0.896v2.517c0,0.573,0.196,0.677,0.684,0.677
			c0.075,0,0.147-0.004,0.219-0.011l0.045,0.418c-0.135,0.022-0.303,0.043-0.436,0.043c-0.743,0-1.06-0.321-1.06-1.053v-2.591
			h-0.736v-0.434h0.736v-1.048L189.163,188.744z"/>
		<path fill="#808184" d="M190.917,188.675c0-0.296,0.075-0.402,0.33-0.402c0.255,0,0.332,0.106,0.332,0.402
			s-0.07,0.397-0.332,0.397C190.985,189.072,190.917,188.971,190.917,188.675z M190.974,189.88h0.549v4.022h-0.549V189.88z"/>
		<path fill="#808184" d="M192.568,191.891c0-1.505,0.47-2.064,1.766-2.064c1.298,0,1.766,0.58,1.766,2.064
			c0,1.477-0.467,2.066-1.766,2.066C193.038,193.957,192.568,193.396,192.568,191.891z M195.549,191.891
			c0-1.223-0.289-1.602-1.215-1.602c-0.906,0-1.213,0.325-1.213,1.602c0,1.273,0.307,1.603,1.213,1.603
			C195.253,193.493,195.549,193.114,195.549,191.891z"/>
		<path fill="#808184" d="M197.718,193.902h-0.547v-3.053c0-0.235,0.007-0.466,0.021-0.688c0.456-0.198,1.093-0.336,1.816-0.336
			c1.371,0,1.511,0.648,1.511,1.463v2.613h-0.549v-2.514c0-0.759-0.136-1.102-1.145-1.102c-0.334,0-0.84,0.083-1.091,0.196
			c-0.011,0.189-0.016,0.44-0.016,0.63V193.902z"/>
		<path fill="#808184" d="M206.46,192.428l1.579-3.469c0.115-0.253,0.264-0.373,0.438-0.373c0.235,0,0.359,0.125,0.375,0.407
			l0.285,4.909h-0.571l-0.25-4.406l-1.518,3.406c-0.084,0.188-0.179,0.289-0.339,0.289c-0.161,0-0.258-0.102-0.341-0.289
			l-1.515-3.403l-0.257,4.403h-0.549l0.298-4.912c0.018-0.282,0.136-0.404,0.371-0.404c0.171,0,0.318,0.111,0.434,0.366
			L206.46,192.428z"/>
		<path fill="#808184" d="M210.152,191.891c0-1.505,0.47-2.064,1.766-2.064c1.298,0,1.766,0.58,1.766,2.064
			c0,1.477-0.467,2.066-1.766,2.066C210.622,193.957,210.152,193.396,210.152,191.891z M213.133,191.891
			c0-1.223-0.289-1.602-1.215-1.602c-0.906,0-1.213,0.325-1.213,1.602c0,1.273,0.307,1.603,1.213,1.603
			C212.837,193.493,213.133,193.114,213.133,191.891z"/>
		<path fill="#808184" d="M215.303,193.902h-0.546v-3.053c0-0.235,0.006-0.466,0.02-0.688c0.456-0.198,1.093-0.336,1.816-0.336
			c1.371,0,1.511,0.648,1.511,1.463v2.613h-0.549v-2.514c0-0.759-0.136-1.102-1.145-1.102c-0.334,0-0.84,0.083-1.091,0.196
			c-0.011,0.189-0.016,0.44-0.016,0.63V193.902z"/>
		<path fill="#808184" d="M220.177,188.744v1.136h0.896v0.434h-0.896v2.517c0,0.573,0.196,0.677,0.684,0.677
			c0.075,0,0.147-0.004,0.219-0.011l0.045,0.418c-0.135,0.022-0.302,0.043-0.436,0.043c-0.743,0-1.059-0.321-1.059-1.053v-2.591
			h-0.736v-0.434h0.736v-1.048L220.177,188.744z"/>
		<path fill="#808184" d="M224.721,193.902v-2.524c0-0.762-0.147-1.087-1.17-1.087c-0.314,0-0.693,0.063-1.005,0.177v3.435H222
			v-5.576h0.546v1.667c0.357-0.1,0.731-0.165,1.17-0.167c1.373-0.007,1.551,0.587,1.551,1.438v2.638H224.721z"/>
		<path fill="#808184" d="M226.334,188.326h0.549v4.497c0,0.434,0.106,0.742,0.323,1.019l-0.465,0.239
			c-0.265-0.301-0.407-0.662-0.407-1.22V188.326z"/>
		<path fill="#808184" d="M230.643,189.88h0.556l-1.872,5.504h-0.556l0.61-1.764l-1.627-3.74h0.586l1.291,3.024L230.643,189.88z"/>
		<path fill="#808184" d="M237.227,189.112h-1.318c-0.969,0-1.127,0.174-1.127,1.008v0.867h2.337v0.472h-2.337v0.971
			c0,0.831,0.158,1.001,1.127,1.001h1.318v0.46c-0.417,0.019-0.894,0.025-1.296,0.025c-0.89,0-1.729-0.045-1.729-1.161v-2.963
			c0-1.115,0.84-1.165,1.729-1.165c0.337,0,0.865,0.014,1.296,0.031V189.112z"/>
		<path fill="#808184" d="M238.77,193.902h-0.547v-3.053c0-0.235,0.007-0.466,0.021-0.688c0.456-0.198,1.093-0.336,1.815-0.336
			c1.371,0,1.511,0.648,1.511,1.463v2.613h-0.549v-2.514c0-0.759-0.135-1.102-1.145-1.102c-0.334,0-0.84,0.083-1.091,0.196
			c-0.012,0.189-0.016,0.44-0.016,0.63V193.902z"/>
		<path fill="#808184" d="M242.625,191.891c0-1.459,0.438-2.064,1.76-2.064c1.361,0,1.729,0.711,1.729,1.812
			c0,0.112-0.004,0.262-0.011,0.381c-0.461,0.077-1.414,0.167-1.977,0.19l-0.953,0.038c0.068,0.824,0.316,1.246,1.33,1.246
			c0.524,0,1.008-0.056,1.421-0.112l0.05,0.442c-0.461,0.07-0.924,0.134-1.685,0.134
			C242.974,193.957,242.625,193.083,242.625,191.891z M244.225,191.782c0.352-0.017,0.957-0.063,1.327-0.111
			c0.007-0.081,0.01-0.198,0.01-0.282c0-0.682-0.299-1.115-1.177-1.115c-1.012,0-1.225,0.52-1.225,1.558L244.225,191.782z"/>
		<path fill="#808184" d="M247.128,193.902v-3.066c0-0.235,0.007-0.466,0.022-0.687c0.442-0.233,1.003-0.323,1.509-0.323
			c0.133,0,0.257,0.005,0.375,0.018l-0.046,0.466c-0.099-0.012-0.207-0.016-0.329-0.016c-0.31,0-0.695,0.059-0.969,0.183
			c-0.012,0.189-0.016,0.442-0.016,0.632v2.794H247.128z"/>
		<path fill="#808184" d="M249.949,194.857c0.429,0.065,0.905,0.122,1.368,0.122c0.872,0,1.096-0.271,1.096-0.931v-0.334
			c-0.356,0.093-0.729,0.151-1.111,0.151c-1.192,0-1.689-0.501-1.689-2.019c0-1.527,0.547-2.021,1.813-2.021
			c0.509,0,1.068,0.09,1.511,0.323c0.014,0.221,0.023,0.451,0.023,0.687v3.38c0,1.003-0.678,1.222-1.534,1.222
			c-0.571,0-1.067-0.069-1.526-0.145L249.949,194.857z M250.166,191.848c0,1.102,0.203,1.564,1.31,1.564
			c0.31,0,0.687-0.072,0.938-0.158v-2.161c0-0.189-0.007-0.44-0.016-0.632c-0.273-0.124-0.66-0.181-0.972-0.181
			C250.436,190.28,250.166,190.802,250.166,191.848z"/>
		<path fill="#808184" d="M256.693,189.88h0.556l-1.872,5.504h-0.556l0.609-1.764l-1.626-3.74h0.585l1.292,3.024L256.693,189.88z"/>
		<path fill="#808184" d="M260.274,193.902v-5.191c0.463-0.077,1.043-0.125,1.605-0.125c1.118,0,2.046,0.21,2.046,1.561
			c0,1.025-0.513,1.426-1.294,1.55l1.289,2.206h-0.677l-1.222-2.159h-0.082c-0.286,0-0.828-0.022-1.088-0.036v2.195H260.274z
			 M260.852,191.22c0.422,0.045,0.723,0.047,1.027,0.047c0.933,0,1.468-0.23,1.468-1.12c0-0.783-0.386-1.088-1.44-1.088
			c-0.296,0-0.678,0.02-1.055,0.069V191.22z"/>
		<path fill="#808184" d="M264.787,191.891c0-1.459,0.438-2.064,1.76-2.064c1.361,0,1.729,0.711,1.729,1.812
			c0,0.112-0.004,0.262-0.011,0.381c-0.461,0.077-1.414,0.167-1.977,0.19l-0.953,0.038c0.068,0.824,0.316,1.246,1.33,1.246
			c0.524,0,1.008-0.056,1.421-0.112l0.05,0.442c-0.461,0.07-0.924,0.134-1.685,0.134
			C265.135,193.957,264.787,193.083,264.787,191.891z M266.386,191.782c0.352-0.017,0.957-0.063,1.327-0.111
			c0.007-0.081,0.01-0.198,0.01-0.282c0-0.682-0.299-1.115-1.177-1.115c-1.012,0-1.224,0.52-1.224,1.558L266.386,191.782z"/>
		<path fill="#808184" d="M271.178,193.565c-0.102,0.263-0.226,0.392-0.429,0.392c-0.21,0-0.344-0.129-0.443-0.392l-1.416-3.686
			h0.585l1.281,3.424l1.298-3.424h0.561L271.178,193.565z"/>
		<path fill="#808184" d="M273.445,188.675c0-0.296,0.074-0.402,0.329-0.402c0.256,0,0.332,0.106,0.332,0.402
			s-0.07,0.397-0.332,0.397S273.445,188.971,273.445,188.675z M273.5,189.88h0.549v4.022H273.5V189.88z"/>
		<path fill="#808184" d="M275.061,191.891c0-1.459,0.438-2.064,1.76-2.064c1.361,0,1.729,0.711,1.729,1.812
			c0,0.112-0.004,0.262-0.011,0.381c-0.461,0.077-1.414,0.167-1.977,0.19l-0.953,0.038c0.068,0.824,0.316,1.246,1.33,1.246
			c0.524,0,1.008-0.056,1.421-0.112l0.05,0.442c-0.461,0.07-0.924,0.134-1.685,0.134
			C275.41,193.957,275.061,193.083,275.061,191.891z M276.661,191.782c0.352-0.017,0.957-0.063,1.327-0.111
			c0.007-0.081,0.01-0.198,0.01-0.282c0-0.682-0.299-1.115-1.177-1.115c-1.012,0-1.225,0.52-1.225,1.558L276.661,191.782z"/>
		<path fill="#808184" d="M280.699,193.3l1.063-2.722c0.1-0.253,0.199-0.379,0.387-0.379c0.194,0,0.303,0.128,0.397,0.379
			l1.019,2.717l0.905-3.415h0.542l-1.025,3.682c-0.074,0.269-0.212,0.396-0.411,0.396c-0.203,0-0.32-0.136-0.42-0.396l-1.014-2.653
			l-1.055,2.653c-0.104,0.26-0.212,0.396-0.415,0.396c-0.206,0-0.349-0.129-0.421-0.398l-1.002-3.679h0.562L280.699,193.3z"/>
		<path fill="#808184" d="M285.737,193.001h0.646l-0.676,1.889h-0.472L285.737,193.001z"/>
		<path fill="#808184" d="M289.801,189.887c0,0.693,0.301,0.813,1.208,1.073c0.854,0.244,1.464,0.587,1.464,1.515
			c0,1.084-0.669,1.482-1.868,1.482c-0.562,0-0.935-0.043-1.346-0.125l0.057-0.474c0.415,0.061,0.883,0.099,1.267,0.099
			c0.752,0,1.287-0.171,1.287-0.955c0-0.654-0.447-0.833-1.165-1.05c-0.933-0.28-1.483-0.524-1.483-1.464
			c0-1.057,0.644-1.402,1.795-1.402c0.473,0,0.955,0.055,1.33,0.12l-0.052,0.465c-0.32-0.047-0.693-0.09-1.048-0.09
			C290.481,189.081,289.801,189.183,289.801,189.887z"/>
		<path fill="#808184" d="M293.367,191.891c0-1.459,0.438-2.064,1.76-2.064c1.361,0,1.729,0.711,1.729,1.812
			c0,0.112-0.004,0.262-0.011,0.381c-0.461,0.077-1.414,0.167-1.977,0.19l-0.953,0.038c0.068,0.824,0.316,1.246,1.33,1.246
			c0.524,0,1.008-0.056,1.421-0.112l0.05,0.442c-0.461,0.07-0.924,0.134-1.685,0.134
			C293.715,193.957,293.367,193.083,293.367,191.891z M294.966,191.782c0.352-0.017,0.957-0.063,1.327-0.111
			c0.007-0.081,0.01-0.198,0.01-0.282c0-0.682-0.299-1.115-1.177-1.115c-1.012,0-1.224,0.52-1.224,1.558L294.966,191.782z"/>
		<path fill="#808184" d="M298.42,195.384h-0.544v-4.548c0-0.235,0.007-0.466,0.021-0.687c0.442-0.233,1.002-0.323,1.511-0.323
			c1.278,0,1.813,0.499,1.813,2.066c0,1.538-0.488,2.064-1.688,2.064c-0.382,0-0.756-0.06-1.113-0.151V195.384z M299.358,193.503
			c1.118,0,1.312-0.483,1.312-1.61c0-1.08-0.264-1.612-1.262-1.612c-0.312,0-0.696,0.057-0.972,0.181
			c-0.009,0.191-0.016,0.442-0.016,0.632v2.252C298.671,193.431,299.048,193.503,299.358,193.503z"/>
		<path fill="#808184" d="M303.118,188.744v1.136h0.896v0.434h-0.896v2.517c0,0.573,0.197,0.677,0.685,0.677
			c0.074,0,0.146-0.004,0.219-0.011l0.046,0.418c-0.136,0.022-0.303,0.043-0.437,0.043c-0.743,0-1.059-0.321-1.059-1.053v-2.591
			h-0.736v-0.434h0.736v-1.048L303.118,188.744z"/>
		<path fill="#808184" d="M304.687,191.891c0-1.459,0.438-2.064,1.76-2.064c1.361,0,1.729,0.711,1.729,1.812
			c0,0.112-0.004,0.262-0.011,0.381c-0.461,0.077-1.414,0.167-1.977,0.19l-0.953,0.038c0.068,0.824,0.316,1.246,1.33,1.246
			c0.524,0,1.008-0.056,1.421-0.112l0.05,0.442c-0.461,0.07-0.924,0.134-1.685,0.134
			C305.036,193.957,304.687,193.083,304.687,191.891z M306.287,191.782c0.352-0.017,0.957-0.063,1.327-0.111
			c0.007-0.081,0.01-0.198,0.01-0.282c0-0.682-0.299-1.115-1.177-1.115c-1.012,0-1.224,0.52-1.224,1.558L306.287,191.782z"/>
		<path fill="#808184" d="M309.74,193.902h-0.546v-3.053c0-0.235,0.006-0.466,0.022-0.688c0.431-0.185,1.091-0.336,1.652-0.336
			c0.511,0,0.836,0.122,1.042,0.325c0.401-0.196,0.926-0.325,1.477-0.325c1.206,0,1.384,0.668,1.384,1.463v2.613h-0.546v-2.516
			c0-0.764-0.189-1.098-1.01-1.098c-0.291,0-0.714,0.084-1.057,0.267c0.074,0.217,0.097,0.468,0.097,0.733v2.613h-0.549v-2.516
			c0-0.764-0.188-1.098-1.009-1.098c-0.253,0-0.693,0.084-0.942,0.194c-0.011,0.189-0.016,0.44-0.016,0.63V193.902z"/>
		<path fill="#808184" d="M315.986,188.326h0.546v1.651c0.354-0.093,0.729-0.151,1.111-0.151c1.201,0,1.687,0.526,1.687,2.064
			c0,1.566-0.535,2.066-1.813,2.066c-0.506,0-1.067-0.091-1.511-0.323c-0.013-0.222-0.02-0.452-0.02-0.687V188.326z
			 M316.532,192.689c0,0.189,0.005,0.44,0.016,0.633c0.273,0.124,0.657,0.181,0.969,0.181c1.001,0,1.263-0.533,1.263-1.612
			c0-1.127-0.194-1.61-1.312-1.61c-0.308,0-0.687,0.072-0.936,0.158V192.689z"/>
		<path fill="#808184" d="M320.207,191.891c0-1.459,0.438-2.064,1.76-2.064c1.361,0,1.729,0.711,1.729,1.812
			c0,0.112-0.004,0.262-0.011,0.381c-0.461,0.077-1.414,0.167-1.977,0.19l-0.953,0.038c0.068,0.824,0.316,1.246,1.33,1.246
			c0.524,0,1.008-0.056,1.421-0.112l0.05,0.442c-0.461,0.07-0.924,0.134-1.685,0.134
			C320.555,193.957,320.207,193.083,320.207,191.891z M321.806,191.782c0.352-0.017,0.957-0.063,1.327-0.111
			c0.007-0.081,0.01-0.198,0.01-0.282c0-0.682-0.299-1.115-1.177-1.115c-1.012,0-1.224,0.52-1.224,1.558L321.806,191.782z"/>
		<path fill="#808184" d="M324.708,193.902v-3.066c0-0.235,0.007-0.466,0.022-0.687c0.442-0.233,1.003-0.323,1.509-0.323
			c0.133,0,0.257,0.005,0.375,0.018l-0.046,0.466c-0.099-0.012-0.207-0.016-0.329-0.016c-0.31,0-0.695,0.059-0.969,0.183
			c-0.012,0.189-0.016,0.442-0.016,0.632v2.794H324.708z"/>
		<path fill="#808184" d="M329.317,188.892c0.445-0.079,0.978-0.147,1.529-0.147c1.029,0,1.738,0.296,1.738,1.201
			c0,0.944-0.556,1.482-1.477,1.859c-0.896,0.368-1.091,0.799-1.204,1.601h2.679v0.497h-3.343c0.263-1.481,0.438-2.037,1.55-2.507
			c0.709-0.3,1.229-0.664,1.229-1.314c0-0.652-0.396-0.849-1.43-0.849c-0.425,0-0.915,0.059-1.217,0.105L329.317,188.892z"/>
		<path fill="#808184" d="M333.517,191.351c0-1.748,0.308-2.606,1.825-2.606s1.829,0.858,1.829,2.606s-0.312,2.606-1.829,2.606
			S333.517,193.099,333.517,191.351z M336.604,191.351c0-1.267-0.052-2.134-1.262-2.134c-1.211,0-1.258,0.867-1.258,2.134
			c0,1.265,0.047,2.134,1.258,2.134C336.552,193.484,336.604,192.615,336.604,191.351z"/>
		<path fill="#808184" d="M339.209,189.401c-0.416,0.12-0.89,0.22-1.268,0.275l-0.026-0.467c0.553-0.089,1.072-0.265,1.402-0.411
			h0.451v5.104h-0.56V189.401z"/>
		<path fill="#808184" d="M343.981,189.957c0,0.623-0.269,1.046-0.804,1.258c0.445,0.129,0.893,0.506,0.893,1.194
			c0,1.19-0.734,1.548-1.92,1.548c-0.537,0-1.007-0.057-1.425-0.139l0.063-0.46c0.384,0.05,0.808,0.108,1.201,0.108
			c1.005,0,1.492-0.208,1.492-1.019c0-0.561-0.343-0.883-0.864-0.938c-0.249-0.027-0.542-0.036-0.852-0.036
			c-0.067,0-0.138,0.002-0.208,0.002v-0.436c0.364-0.007,0.75-0.043,1.06-0.088c0.52-0.077,0.79-0.42,0.79-0.874
			c0-0.79-0.542-0.854-1.323-0.854c-0.432,0-0.836,0.047-1.249,0.106l-0.059-0.45c0.44-0.081,0.829-0.138,1.409-0.138
			C343.124,188.744,343.981,188.932,343.981,189.957z"/>
	</g>
</g>
<g id="Layer_2">
</g>
<g id="Layer_3">
	<line fill="none" stroke="#BBBDBF" x1="50.816" y1="168.113" x2="347.341" y2="168.113"/>
	<line fill="none" stroke="#BBBDBF" x1="53.546" y1="121.104" x2="347.341" y2="121.104"/>
	<line fill="none" stroke="#BBBDBF" x1="347.344" y1="74.098" x2="53.546" y2="74.098"/>
	<line fill="none" stroke="#BBBDBF" x1="53.546" y1="27.092" x2="347.346" y2="27.092"/>
	<g>
		<path fill="#58595B" d="M23.542,22.191c-0.547,0.175-1.172,0.321-1.669,0.404l-0.036-0.685c0.729-0.129,1.413-0.388,1.848-0.603
			h0.595v7.483h-0.738V22.191z"/>
		<path fill="#58595B" d="M26.496,24.307c0.152-0.01,0.581-0.026,0.708-0.026c1.642,0,2.82,0.268,2.82,2.225
			c0,1.712-0.866,2.364-2.449,2.364c-0.702,0-1.357-0.076-1.964-0.208l0.083-0.676c0.497,0.093,1.062,0.159,1.61,0.159
			c1.393,0,1.949-0.325,1.949-1.735c0-1.278-0.973-1.447-2.27-1.447c-0.446,0-0.804,0.01-1.226,0.036l0.226-3.692h3.853v0.725
			h-3.198L26.496,24.307z"/>
		<path fill="#58595B" d="M34.459,27.817c-0.36,0.083-0.717,0.152-1.154,0.166v1.017h-0.539v-1.033
			c-1.425-0.175-1.705-1.453-1.705-2.98c0-1.679,0.304-2.655,1.705-2.844v-1.043h0.539v1.01c0.449,0,0.824,0.07,1.146,0.166
			l-0.057,0.596c-0.229-0.043-0.58-0.096-0.857-0.096c-1.606,0-1.764,0.626-1.764,2.212c0,1.483,0.119,2.325,1.752,2.325
			c0.265,0,0.622-0.066,0.869-0.119L34.459,27.817z"/>
		<path fill="#58595B" d="M22.795,69.688c-0.547,0.175-1.172,0.321-1.669,0.404l-0.036-0.685c0.729-0.129,1.413-0.388,1.848-0.603
			h0.595v7.483h-0.738V69.688z"/>
		<path fill="#58595B" d="M25.044,72.546c0-2.563,0.404-3.821,2.404-3.821s2.41,1.258,2.41,3.821c0,2.563-0.411,3.821-2.41,3.821
			S25.044,75.109,25.044,72.546z M29.111,72.546c0-1.857-0.068-3.129-1.664-3.129c-1.595,0-1.657,1.271-1.657,3.129
			c0,1.854,0.063,3.129,1.657,3.129C29.043,75.675,29.111,74.4,29.111,72.546z"/>
		<path fill="#58595B" d="M34.458,75.314c-0.36,0.083-0.717,0.152-1.154,0.166v1.017h-0.539v-1.033
			c-1.425-0.175-1.705-1.453-1.705-2.98c0-1.679,0.304-2.655,1.705-2.844v-1.043h0.539v1.01c0.449,0,0.824,0.07,1.146,0.166
			l-0.057,0.596c-0.229-0.043-0.58-0.096-0.857-0.096c-1.606,0-1.764,0.626-1.764,2.212c0,1.483,0.119,2.325,1.752,2.325
			c0.265,0,0.622-0.066,0.869-0.119L34.458,75.314z"/>
		<path fill="#58595B" d="M26.496,119.301c0.152-0.01,0.581-0.026,0.708-0.026c1.642,0,2.82,0.269,2.82,2.225
			c0,1.712-0.866,2.364-2.449,2.364c-0.702,0-1.357-0.076-1.964-0.208l0.083-0.676c0.497,0.093,1.062,0.159,1.61,0.159
			c1.393,0,1.949-0.324,1.949-1.735c0-1.278-0.973-1.447-2.27-1.447c-0.446,0-0.804,0.011-1.226,0.037l0.226-3.692h3.853v0.726
			h-3.198L26.496,119.301z"/>
		<path fill="#58595B" d="M34.458,122.811c-0.36,0.083-0.717,0.152-1.154,0.166v1.017h-0.539v-1.033
			c-1.425-0.176-1.705-1.454-1.705-2.98c0-1.679,0.304-2.655,1.705-2.844v-1.043h0.539v1.01c0.449,0,0.824,0.069,1.146,0.165
			l-0.057,0.597c-0.229-0.044-0.58-0.097-0.857-0.097c-1.606,0-1.764,0.626-1.764,2.212c0,1.483,0.119,2.324,1.752,2.324
			c0.265,0,0.622-0.065,0.869-0.119L34.458,122.811z"/>
		<path fill="#58595B" d="M29.316,167.54c0-2.563,0.404-3.821,2.404-3.821s2.41,1.258,2.41,3.821c0,2.563-0.411,3.82-2.41,3.82
			S29.316,170.103,29.316,167.54z M33.383,167.54c0-1.858-0.068-3.13-1.664-3.13c-1.595,0-1.657,1.271-1.657,3.13
			c0,1.854,0.063,3.129,1.657,3.129C33.315,170.669,33.383,169.394,33.383,167.54z"/>
	</g>
	<line fill="none" stroke="#231F20" stroke-width="2" x1="51.076" y1="167.756" x2="51.109" y2="171.971"/>
	<line fill="none" stroke="#231F20" stroke-width="2" x1="95.6" y1="167.729" x2="95.632" y2="171.941"/>
	<line fill="none" stroke="#231F20" stroke-width="2" x1="140.129" y1="167.699" x2="140.159" y2="171.91"/>
	<line fill="none" stroke="#231F20" stroke-width="2" x1="184.654" y1="167.67" x2="184.688" y2="171.881"/>
	<line fill="none" stroke="#231F20" stroke-width="2" x1="229.178" y1="167.641" x2="229.216" y2="171.854"/>
	<g>
		<path fill="#231F20" d="M72.686,12.628l3.058-6.299c0.121-0.249,0.23-0.352,0.392-0.352s0.3,0.103,0.318,0.352l0.557,8.269h-0.531
			L75.97,6.992l-2.966,6.102c-0.11,0.223-0.169,0.352-0.33,0.352s-0.23-0.132-0.337-0.352l-2.926-6.102l-0.527,7.606h-0.517
			L68.95,6.33c0.018-0.249,0.15-0.352,0.311-0.352s0.278,0.103,0.399,0.352L72.686,12.628z"/>
		<path fill="#231F20" d="M81.59,14.687c-2.08,0-2.831-0.908-2.831-3.351c0-2.439,0.751-3.348,2.831-3.348s2.831,0.938,2.831,3.348
			C84.421,13.727,83.67,14.687,81.59,14.687z M81.59,14.21c1.729,0,2.325-0.692,2.325-2.875c0-2.179-0.575-2.871-2.325-2.871
			c-1.695,0-2.325,0.593-2.325,2.871C79.265,13.606,79.895,14.21,81.59,14.21z"/>
		<path fill="#231F20" d="M91.153,10.49c0-1.38-0.253-2.025-2.121-2.025c-0.637,0-1.714,0.183-2.215,0.392
			c-0.008,0.344-0.015,0.82-0.015,1.139v4.604h-0.498V9.563c0-0.345,0.007-0.718,0.018-1.051c0.74-0.29,1.82-0.524,2.944-0.524
			c2.168,0,2.384,1.037,2.384,2.333v4.277h-0.498V10.49z"/>
		<path fill="#231F20" d="M93.032,8.076h1.26V6.315l0.498-0.081v1.842h1.531v0.447H94.79v4.387c0,1.165,0.355,1.315,1.292,1.315
			c0.084,0,0.165-0.007,0.249-0.018l0.044,0.428c-0.15,0.029-0.337,0.051-0.487,0.051c-1.121,0-1.597-0.479-1.597-1.648V8.523h-1.26
			V8.076z"/>
		<path fill="#231F20" d="M98.397,8.281c0.659-0.172,1.322-0.285,2.117-0.293c2.171-0.018,2.498,0.857,2.498,2.26v4.351h-0.498
			v-4.156c0-1.381-0.274-1.978-2.179-1.978c-0.579,0-1.315,0.109-1.938,0.308v5.826h-0.498V5.557h0.498V8.281z"/>
		<path fill="#231F20" d="M104.898,5.557h0.498v7.292c0,0.784,0.198,1.351,0.56,1.794l-0.399,0.245
			c-0.428-0.487-0.659-1.073-0.659-1.978V5.557z"/>
		<path fill="#231F20" d="M109.833,13.397l1.831-5.321h0.505l-3.036,8.925h-0.509l0.978-2.875l-2.645-6.05h0.55L109.833,13.397z"/>
		<path fill="#231F20" d="M116.892,14.599l3.237-8.269c0.092-0.231,0.18-0.352,0.341-0.352s0.26,0.121,0.348,0.352l3.201,8.269
			h-0.553l-1.007-2.597h-4.024l-1.015,2.597H116.892z M122.279,11.541l-1.82-4.706l-1.842,4.706H122.279z"/>
		<path fill="#231F20" d="M129.557,8.076h0.52l-2.545,6.178c-0.117,0.278-0.198,0.432-0.37,0.432c-0.187,0-0.289-0.154-0.402-0.432
			l-2.498-6.178h0.542l2.355,5.823L129.557,8.076z"/>
		<path fill="#231F20" d="M131.723,11.826c0.135,1.396,0.344,2.384,2.476,2.384c0.835,0,1.604-0.095,2.274-0.194l0.055,0.469
			c-0.776,0.113-1.45,0.201-2.67,0.201c-2.095,0-2.651-1.417-2.651-3.351c0-2.366,0.696-3.348,2.813-3.348
			c2.105,0,2.772,1.088,2.772,2.747c0,0.205-0.008,0.509-0.019,0.721c-0.747,0.121-2.281,0.26-3.201,0.296L131.723,11.826z
			 M133.751,11.27c0.645-0.029,1.798-0.121,2.52-0.205c0.011-0.168,0.015-0.402,0.015-0.578c0-1.194-0.578-2.021-2.267-2.021
			c-1.842,0-2.307,0.824-2.307,2.9L133.751,11.27z"/>
		<path fill="#231F20" d="M138.514,14.599V9.526c0-0.344,0.007-0.718,0.018-1.051c0.711-0.352,1.564-0.487,2.362-0.487
			c0.216,0,0.417,0.008,0.608,0.029l-0.047,0.483c-0.172-0.015-0.359-0.021-0.561-0.021c-0.571,0-1.3,0.109-1.868,0.355
			c-0.007,0.344-0.015,0.82-0.015,1.139v4.625H138.514z"/>
		<path fill="#231F20" d="M147.712,13.148c0,0.344-0.007,0.718-0.019,1.051c-0.802,0.355-1.673,0.487-2.582,0.487
			c-1.732,0-2.607-0.414-2.607-1.886c0-1.121,0.465-1.839,1.553-2.003c0.857-0.128,2.014-0.168,3.157-0.205v-0.505
			c0-1.197-0.337-1.622-2.076-1.622c-0.736,0-1.392,0.095-2.113,0.205l-0.051-0.462c0.776-0.121,1.454-0.22,2.355-0.22
			c1.354,0,2.384,0.33,2.384,1.923V13.148z M147.214,11.072c-0.879,0.011-2.216,0.044-3.018,0.19
			c-0.791,0.146-1.183,0.513-1.183,1.516c0,1.15,0.582,1.429,2.109,1.429c0.681,0,1.402-0.11,2.076-0.352
			c0.007-0.345,0.015-0.82,0.015-1.139V11.072z"/>
		<path fill="#231F20" d="M154.262,14.247c-0.682,0.18-1.348,0.293-2.095,0.293c-1.916,0-2.651-0.824-2.651-3.274
			c0-2.458,0.846-3.278,2.863-3.278c0.799,0,1.652,0.136,2.362,0.487c0.011,0.333,0.019,0.707,0.019,1.051v5.64
			c0,1.593-1.029,1.923-2.384,1.923c-0.901,0-1.579-0.099-2.355-0.22l0.052-0.461c0.721,0.11,1.377,0.205,2.113,0.205
			c1.74,0,2.077-0.425,2.077-1.623V14.247z M154.262,9.959c0-0.319-0.008-0.795-0.015-1.139c-0.568-0.246-1.297-0.355-1.868-0.355
			c-1.67,0-2.358,0.699-2.358,2.801c0,2.179,0.531,2.798,2.399,2.798c0.626,0,1.374-0.15,1.842-0.308V9.959z"/>
		<path fill="#231F20" d="M157.153,11.826c0.135,1.396,0.344,2.384,2.476,2.384c0.835,0,1.604-0.095,2.274-0.194l0.055,0.469
			c-0.776,0.113-1.45,0.201-2.67,0.201c-2.095,0-2.651-1.417-2.651-3.351c0-2.366,0.696-3.348,2.813-3.348
			c2.105,0,2.772,1.088,2.772,2.747c0,0.205-0.008,0.509-0.019,0.721c-0.747,0.121-2.281,0.26-3.201,0.296L157.153,11.826z
			 M159.181,11.27c0.645-0.029,1.798-0.121,2.52-0.205c0.011-0.168,0.015-0.402,0.015-0.578c0-1.194-0.578-2.021-2.267-2.021
			c-1.842,0-2.307,0.824-2.307,2.9L159.181,11.27z"/>
		<path fill="#231F20" d="M167.858,6.161c0.788-0.117,1.659-0.183,2.512-0.183c1.783,0,3.259,0.319,3.259,2.458
			c0,1.732-0.938,2.336-2.355,2.482l2.168,3.681h-0.607l-2.109-3.647c-0.084,0.004-0.172,0.004-0.257,0.004
			c-0.49,0-1.647-0.052-2.095-0.073v3.717h-0.516V6.161z M168.375,10.384c0.894,0.088,1.443,0.095,1.996,0.095
			c1.75,0,2.735-0.428,2.735-2.043c0-1.429-0.729-1.981-2.691-1.981c-0.538,0-1.278,0.04-2.04,0.139V10.384z"/>
		<path fill="#231F20" d="M175.641,11.826c0.136,1.396,0.345,2.384,2.476,2.384c0.835,0,1.604-0.095,2.274-0.194l0.055,0.469
			c-0.776,0.113-1.45,0.201-2.669,0.201c-2.095,0-2.651-1.417-2.651-3.351c0-2.366,0.696-3.348,2.813-3.348
			c2.106,0,2.772,1.088,2.772,2.747c0,0.205-0.007,0.509-0.018,0.721c-0.747,0.121-2.282,0.26-3.201,0.296L175.641,11.826z
			 M177.67,11.27c0.645-0.029,1.798-0.121,2.52-0.205c0.011-0.168,0.015-0.402,0.015-0.578c0-1.194-0.579-2.021-2.267-2.021
			c-1.842,0-2.307,0.824-2.307,2.9L177.67,11.27z"/>
		<path fill="#231F20" d="M181.78,8.076h1.26V6.315l0.498-0.081v1.842h1.531v0.447h-1.531v4.387c0,1.165,0.355,1.315,1.292,1.315
			c0.084,0,0.165-0.007,0.249-0.018l0.044,0.428c-0.15,0.029-0.337,0.051-0.487,0.051c-1.121,0-1.597-0.479-1.597-1.648V8.523h-1.26
			V8.076z"/>
		<path fill="#231F20" d="M191.437,13.148c0,0.344-0.007,0.718-0.019,1.051c-0.802,0.355-1.673,0.487-2.582,0.487
			c-1.732,0-2.607-0.414-2.607-1.886c0-1.121,0.465-1.839,1.553-2.003c0.857-0.128,2.014-0.168,3.157-0.205v-0.505
			c0-1.197-0.337-1.622-2.076-1.622c-0.736,0-1.392,0.095-2.113,0.205l-0.051-0.462c0.776-0.121,1.454-0.22,2.355-0.22
			c1.354,0,2.384,0.33,2.384,1.923V13.148z M190.939,11.072c-0.879,0.011-2.216,0.044-3.018,0.19
			c-0.791,0.146-1.183,0.513-1.183,1.516c0,1.15,0.582,1.429,2.109,1.429c0.681,0,1.402-0.11,2.076-0.352
			c0.007-0.345,0.015-0.82,0.015-1.139V11.072z"/>
		<path fill="#231F20" d="M193.698,5.469c0.234,0,0.3,0.146,0.3,0.506c0,0.355-0.055,0.487-0.3,0.487s-0.297-0.132-0.297-0.487
			C193.401,5.615,193.463,5.469,193.698,5.469z M193.947,14.599h-0.498V8.076h0.498V14.599z"/>
		<path fill="#231F20" d="M195.882,5.557h0.498v7.292c0,0.784,0.198,1.351,0.56,1.794l-0.399,0.245
			c-0.428-0.487-0.659-1.073-0.659-1.978V5.557z"/>
		<path fill="#231F20" d="M202.369,6.161c0.788-0.117,1.659-0.183,2.512-0.183c1.783,0,3.259,0.359,3.259,2.498
			c0,2.102-1.304,2.56-3.161,2.56c-0.49,0-1.647-0.051-2.095-0.073v3.637h-0.516V6.161z M202.885,10.464
			c0.894,0.088,1.443,0.096,1.996,0.096c1.75,0,2.735-0.41,2.735-2.084c0-1.428-0.729-2.021-2.691-2.021
			c-0.538,0-1.278,0.04-2.04,0.139V10.464z"/>
		<path fill="#231F20" d="M209.8,14.599V9.526c0-0.344,0.007-0.718,0.019-1.051c0.71-0.352,1.563-0.487,2.362-0.487
			c0.216,0,0.417,0.008,0.608,0.029l-0.048,0.483c-0.172-0.015-0.358-0.021-0.56-0.021c-0.571,0-1.3,0.109-1.868,0.355
			c-0.007,0.344-0.015,0.82-0.015,1.139v4.625H209.8z"/>
		<path fill="#231F20" d="M214.466,5.469c0.234,0,0.3,0.146,0.3,0.506c0,0.355-0.055,0.487-0.3,0.487s-0.296-0.132-0.296-0.487
			C214.169,5.615,214.231,5.469,214.466,5.469z M214.715,14.599h-0.498V8.076h0.498V14.599z"/>
		<path fill="#231F20" d="M220.557,8.556c-0.234-0.041-0.725-0.091-1.055-0.091c-2.289,0-2.516,0.904-2.516,2.798
			c0,1.765,0.216,2.944,2.486,2.944c0.304,0,0.816-0.081,1.084-0.136l0.055,0.45c-0.498,0.092-0.9,0.165-1.461,0.165
			c-2.212,0-2.67-1.472-2.67-3.424c0-2.135,0.477-3.274,2.809-3.274c0.487,0,0.926,0.063,1.311,0.154L220.557,8.556z"/>
		<path fill="#231F20" d="M222.182,11.826c0.136,1.396,0.345,2.384,2.476,2.384c0.835,0,1.604-0.095,2.274-0.194l0.055,0.469
			c-0.776,0.113-1.45,0.201-2.669,0.201c-2.095,0-2.651-1.417-2.651-3.351c0-2.366,0.696-3.348,2.813-3.348
			c2.106,0,2.772,1.088,2.772,2.747c0,0.205-0.007,0.509-0.018,0.721c-0.747,0.121-2.282,0.26-3.201,0.296L222.182,11.826z
			 M224.211,11.27c0.645-0.029,1.798-0.121,2.52-0.205c0.011-0.168,0.015-0.402,0.015-0.578c0-1.194-0.579-2.021-2.267-2.021
			c-1.842,0-2.307,0.824-2.307,2.9L224.211,11.27z"/>
		<path fill="#231F20" d="M229.27,9.57c0,1.019,0.578,1.095,1.816,1.461c1.465,0.432,2.084,0.861,2.084,1.89
			c0,1.384-1.04,1.765-2.454,1.765c-0.699,0-1.245-0.048-1.94-0.183l0.055-0.436c0.557,0.088,1.065,0.136,1.633,0.136
			c0.956,0,2.184-0.015,2.184-1.23c0-0.894-0.506-1.106-1.839-1.498c-1.007-0.296-2.047-0.52-2.047-1.813
			c0-1.311,0.894-1.674,2.227-1.674c0.758,0,1.34,0.07,1.974,0.19l-0.055,0.429c-0.473-0.077-1.025-0.143-1.637-0.143
			C230.354,8.465,229.27,8.494,229.27,9.57z"/>
		<path fill="#231F20" d="M241.266,14.687c-2.08,0-2.831-0.908-2.831-3.351c0-2.439,0.751-3.348,2.831-3.348
			s2.831,0.938,2.831,3.348C244.097,13.727,243.346,14.687,241.266,14.687z M241.266,14.21c1.729,0,2.325-0.692,2.325-2.875
			c0-2.179-0.575-2.871-2.325-2.871c-1.695,0-2.325,0.593-2.325,2.871C238.941,13.606,239.571,14.21,241.266,14.21z"/>
		<path fill="#231F20" d="M246.914,14.599h-0.498V8.523h-1.205V8.076h1.205V7.318c0-1.22,0.601-1.85,1.765-1.85
			c0.092,0,0.228,0.011,0.326,0.029l-0.044,0.418h-0.179c-0.847,0-1.37,0.344-1.37,1.366v0.794h1.534v0.447h-1.534V14.599z"/>
		<path fill="#231F20" d="M253.642,7.838c0-1.714,1.325-1.794,2.721-1.794c0.502,0,1.224,0.015,1.981,0.044V6.52h-2.018
			c-1.868,0-2.168,0.319-2.168,1.872v1.626h4.002v0.461h-4.002v1.81c0,1.553,0.3,1.856,2.168,1.856h2.018v0.447
			c-0.718,0.029-1.289,0.029-1.981,0.029c-1.396,0-2.721-0.066-2.721-1.78V7.838z"/>
		<path fill="#231F20" d="M259.987,5.557h0.498v7.292c0,0.784,0.197,1.351,0.561,1.794l-0.399,0.245
			c-0.429-0.487-0.659-1.073-0.659-1.978V5.557z"/>
		<path fill="#231F20" d="M262.856,11.826c0.135,1.396,0.344,2.384,2.476,2.384c0.835,0,1.604-0.095,2.274-0.194l0.055,0.469
			c-0.776,0.113-1.45,0.201-2.67,0.201c-2.095,0-2.651-1.417-2.651-3.351c0-2.366,0.696-3.348,2.813-3.348
			c2.105,0,2.772,1.088,2.772,2.747c0,0.205-0.008,0.509-0.019,0.721c-0.747,0.121-2.281,0.26-3.2,0.296L262.856,11.826z
			 M264.884,11.27c0.645-0.029,1.798-0.121,2.52-0.205c0.011-0.168,0.015-0.402,0.015-0.578c0-1.194-0.578-2.021-2.267-2.021
			c-1.842,0-2.308,0.824-2.308,2.9L264.884,11.27z"/>
		<path fill="#231F20" d="M273.627,8.556c-0.234-0.041-0.726-0.091-1.055-0.091c-2.289,0-2.517,0.904-2.517,2.798
			c0,1.765,0.216,2.944,2.487,2.944c0.304,0,0.816-0.081,1.084-0.136l0.055,0.45c-0.498,0.092-0.901,0.165-1.461,0.165
			c-2.213,0-2.67-1.472-2.67-3.424c0-2.135,0.476-3.274,2.809-3.274c0.487,0,0.927,0.063,1.311,0.154L273.627,8.556z"/>
		<path fill="#231F20" d="M274.852,8.076h1.26V6.315l0.498-0.081v1.842h1.531v0.447h-1.531v4.387c0,1.165,0.355,1.315,1.293,1.315
			c0.084,0,0.164-0.007,0.249-0.018l0.044,0.428c-0.15,0.029-0.337,0.051-0.487,0.051c-1.12,0-1.597-0.479-1.597-1.648V8.523h-1.26
			V8.076z"/>
		<path fill="#231F20" d="M279.711,14.599V9.526c0-0.344,0.008-0.718,0.019-1.051c0.711-0.352,1.563-0.487,2.362-0.487
			c0.216,0,0.418,0.008,0.607,0.029l-0.047,0.483c-0.172-0.015-0.359-0.021-0.561-0.021c-0.571,0-1.3,0.109-1.867,0.355
			c-0.008,0.344-0.016,0.82-0.016,1.139v4.625H279.711z"/>
		<path fill="#231F20" d="M284.377,5.469c0.234,0,0.3,0.146,0.3,0.506c0,0.355-0.055,0.487-0.3,0.487
			c-0.246,0-0.297-0.132-0.297-0.487C284.081,5.615,284.143,5.469,284.377,5.469z M284.625,14.599h-0.498V8.076h0.498V14.599z"/>
		<path fill="#231F20" d="M290.469,8.556c-0.234-0.041-0.726-0.091-1.055-0.091c-2.289,0-2.517,0.904-2.517,2.798
			c0,1.765,0.216,2.944,2.487,2.944c0.304,0,0.816-0.081,1.084-0.136l0.055,0.45c-0.498,0.092-0.901,0.165-1.461,0.165
			c-2.213,0-2.67-1.472-2.67-3.424c0-2.135,0.476-3.274,2.809-3.274c0.487,0,0.927,0.063,1.311,0.154L290.469,8.556z"/>
		<path fill="#231F20" d="M292.243,5.469c0.234,0,0.301,0.146,0.301,0.506c0,0.355-0.055,0.487-0.301,0.487
			c-0.245,0-0.296-0.132-0.296-0.487C291.947,5.615,292.008,5.469,292.243,5.469z M292.493,14.599h-0.498V8.076h0.498V14.599z"/>
		<path fill="#231F20" d="M293.958,8.076h1.26V6.315l0.498-0.081v1.842h1.53v0.447h-1.53v4.387c0,1.165,0.355,1.315,1.293,1.315
			c0.084,0,0.165-0.007,0.249-0.018l0.044,0.428c-0.15,0.029-0.337,0.051-0.487,0.051c-1.121,0-1.597-0.479-1.597-1.648V8.523h-1.26
			V8.076z"/>
		<path fill="#231F20" d="M301.374,13.397l1.831-5.321h0.505l-3.035,8.925h-0.51l0.979-2.875l-2.645-6.05h0.55L301.374,13.397z"/>
	</g>
	<g>
		<path fill="#58595B" d="M41.421,174.041c0.532-0.105,1.17-0.195,1.829-0.195c1.231,0,2.08,0.394,2.08,1.599
			c0,1.257-0.664,1.972-1.766,2.474c-1.072,0.49-1.305,1.064-1.439,2.132h3.203v0.661H41.33c0.313-1.972,0.524-2.711,1.853-3.337
			c0.848-0.399,1.469-0.884,1.469-1.749c0-0.869-0.473-1.131-1.709-1.131c-0.508,0-1.094,0.078-1.456,0.142L41.421,174.041z"/>
		<path fill="#58595B" d="M46.442,177.314c0-2.327,0.367-3.469,2.182-3.469s2.188,1.142,2.188,3.469
			c0,2.326-0.373,3.469-2.188,3.469S46.442,179.641,46.442,177.314z M50.134,177.314c0-1.687-0.062-2.841-1.51-2.841
			s-1.504,1.154-1.504,2.841c0,1.683,0.057,2.841,1.504,2.841S50.134,178.997,50.134,177.314z"/>
		<path fill="#58595B" d="M52.063,177.314c0-2.327,0.367-3.469,2.182-3.469s2.188,1.142,2.188,3.469
			c0,2.326-0.373,3.469-2.188,3.469S52.063,179.641,52.063,177.314z M55.754,177.314c0-1.687-0.062-2.841-1.51-2.841
			s-1.504,1.154-1.504,2.841c0,1.683,0.057,2.841,1.504,2.841S55.754,178.997,55.754,177.314z"/>
		<path fill="#58595B" d="M58.758,180.711h-0.762l2.628-6.142H57.24v-0.652h3.6c0.338,0,0.5,0.153,0.5,0.392
			c0,0.093-0.024,0.195-0.073,0.313L58.758,180.711z"/>
	</g>
	<g>
		<path fill="#58595B" d="M84.478,174.041c0.532-0.105,1.169-0.195,1.828-0.195c1.231,0,2.08,0.394,2.08,1.599
			c0,1.257-0.664,1.972-1.766,2.474c-1.072,0.49-1.305,1.064-1.439,2.132h3.203v0.661h-3.998c0.313-1.972,0.524-2.711,1.853-3.337
			c0.848-0.399,1.469-0.884,1.469-1.749c0-0.869-0.473-1.131-1.709-1.131c-0.508,0-1.094,0.078-1.456,0.142L84.478,174.041z"/>
		<path fill="#58595B" d="M89.498,177.314c0-2.327,0.367-3.469,2.182-3.469s2.188,1.142,2.188,3.469
			c0,2.326-0.373,3.469-2.188,3.469S89.498,179.641,89.498,177.314z M93.19,177.314c0-1.687-0.062-2.841-1.51-2.841
			s-1.504,1.154-1.504,2.841c0,1.683,0.057,2.841,1.504,2.841S93.19,178.997,93.19,177.314z"/>
		<path fill="#58595B" d="M95.119,177.314c0-2.327,0.367-3.469,2.182-3.469s2.188,1.142,2.188,3.469
			c0,2.326-0.373,3.469-2.188,3.469S95.119,179.641,95.119,177.314z M98.811,177.314c0-1.687-0.062-2.841-1.51-2.841
			s-1.504,1.154-1.504,2.841c0,1.683,0.057,2.841,1.504,2.841S98.811,178.997,98.811,177.314z"/>
		<path fill="#58595B" d="M104.95,175.495c0,0.788-0.2,1.29-0.972,1.684c0.618,0.286,1.067,0.755,1.067,1.723
			c0,1.545-1.005,1.882-2.199,1.882c-1.264,0-2.193-0.436-2.193-1.891c0-0.962,0.435-1.413,1.059-1.711
			c-0.705-0.357-0.959-0.868-0.959-1.687c0-1.166,0.84-1.649,2.093-1.649C104.069,173.846,104.95,174.326,104.95,175.495z
			 M104.38,178.865c0-0.947-0.551-1.266-1.675-1.358c-0.815,0.114-1.391,0.424-1.391,1.358c0,1.055,0.688,1.299,1.531,1.299
			C103.694,180.164,104.38,179.944,104.38,178.865z M104.307,175.631c0-0.98-0.678-1.179-1.461-1.179
			c-0.775,0-1.445,0.189-1.445,1.179c0,0.812,0.538,1.185,1.591,1.26C103.731,176.752,104.307,176.476,104.307,175.631z"/>
	</g>
	<g>
		<path fill="#58595B" d="M129.201,174.041c0.532-0.105,1.169-0.195,1.828-0.195c1.231,0,2.08,0.394,2.08,1.599
			c0,1.257-0.664,1.972-1.766,2.474c-1.072,0.49-1.305,1.064-1.439,2.132h3.203v0.661h-3.998c0.313-1.972,0.524-2.711,1.853-3.337
			c0.848-0.399,1.469-0.884,1.469-1.749c0-0.869-0.473-1.131-1.709-1.131c-0.508,0-1.094,0.078-1.456,0.142L129.201,174.041z"/>
		<path fill="#58595B" d="M134.221,177.314c0-2.327,0.367-3.469,2.182-3.469s2.188,1.142,2.188,3.469
			c0,2.326-0.373,3.469-2.188,3.469S134.221,179.641,134.221,177.314z M137.913,177.314c0-1.687-0.062-2.841-1.51-2.841
			s-1.504,1.154-1.504,2.841c0,1.683,0.057,2.841,1.504,2.841S137.913,178.997,137.913,177.314z"/>
		<path fill="#58595B" d="M139.841,177.314c0-2.327,0.367-3.469,2.182-3.469s2.188,1.142,2.188,3.469
			c0,2.326-0.373,3.469-2.188,3.469S139.841,179.641,139.841,177.314z M143.533,177.314c0-1.687-0.062-2.841-1.51-2.841
			s-1.504,1.154-1.504,2.841c0,1.683,0.057,2.841,1.504,2.841S143.533,178.997,143.533,177.314z"/>
		<path fill="#58595B" d="M145.342,176.01c0-1.737,0.897-2.164,2.269-2.164c1.736,0,2.128,1.076,2.128,2.786
			c0,3.159-0.618,4.151-3.395,4.151c-0.064,0-0.14,0-0.507-0.009l-0.057-0.616c1.445-0.058,3.146,0.093,3.228-2.207
			c-0.486,0.069-1.104,0.139-1.542,0.139C146.147,178.09,145.342,177.689,145.342,176.01z M149.048,177.335
			c0.022-0.324,0.022-0.58,0.022-0.848c0-1.019-0.165-2.011-1.435-2.011c-1.221,0-1.623,0.427-1.623,1.548
			c0,1.224,0.564,1.458,1.631,1.458C148.014,177.482,148.613,177.401,149.048,177.335z"/>
	</g>
	<g>
		<path fill="#58595B" d="M175.083,174.041c0.532-0.105,1.169-0.195,1.828-0.195c1.231,0,2.08,0.394,2.08,1.599
			c0,1.257-0.664,1.972-1.766,2.474c-1.072,0.49-1.305,1.064-1.439,2.132h3.203v0.661h-3.998c0.313-1.972,0.524-2.711,1.853-3.337
			c0.848-0.399,1.469-0.884,1.469-1.749c0-0.869-0.473-1.131-1.709-1.131c-0.508,0-1.094,0.078-1.456,0.142L175.083,174.041z"/>
		<path fill="#58595B" d="M180.104,177.314c0-2.327,0.367-3.469,2.182-3.469s2.188,1.142,2.188,3.469
			c0,2.326-0.373,3.469-2.188,3.469S180.104,179.641,180.104,177.314z M183.795,177.314c0-1.687-0.062-2.841-1.51-2.841
			s-1.504,1.154-1.504,2.841c0,1.683,0.057,2.841,1.504,2.841S183.795,178.997,183.795,177.314z"/>
		<path fill="#58595B" d="M186.907,174.72c-0.497,0.159-1.064,0.292-1.515,0.367l-0.032-0.622c0.662-0.117,1.283-0.352,1.677-0.548
			h0.54v6.794h-0.67V174.72z"/>
		<path fill="#58595B" d="M188.949,177.314c0-2.327,0.367-3.469,2.182-3.469s2.188,1.142,2.188,3.469
			c0,2.326-0.373,3.469-2.188,3.469S188.949,179.641,188.949,177.314z M192.641,177.314c0-1.687-0.062-2.841-1.51-2.841
			s-1.504,1.154-1.504,2.841c0,1.683,0.057,2.841,1.504,2.841S192.641,178.997,192.641,177.314z"/>
	</g>
	<g>
		<path fill="#58595B" d="M220.986,174.041c0.532-0.105,1.169-0.195,1.828-0.195c1.231,0,2.08,0.394,2.08,1.599
			c0,1.257-0.665,1.972-1.767,2.474c-1.072,0.49-1.305,1.064-1.439,2.132h3.203v0.661h-3.997c0.313-1.972,0.523-2.711,1.853-3.337
			c0.848-0.399,1.469-0.884,1.469-1.749c0-0.869-0.473-1.131-1.709-1.131c-0.508,0-1.094,0.078-1.456,0.142L220.986,174.041z"/>
		<path fill="#58595B" d="M226.005,177.314c0-2.327,0.367-3.469,2.182-3.469c1.815,0,2.188,1.142,2.188,3.469
			c0,2.326-0.373,3.469-2.188,3.469C226.373,180.783,226.005,179.641,226.005,177.314z M229.697,177.314
			c0-1.687-0.062-2.841-1.51-2.841c-1.447,0-1.504,1.154-1.504,2.841c0,1.683,0.057,2.841,1.504,2.841
			C229.635,180.155,229.697,178.997,229.697,177.314z"/>
		<path fill="#58595B" d="M232.809,174.72c-0.497,0.159-1.064,0.292-1.516,0.367l-0.032-0.622c0.662-0.117,1.283-0.352,1.677-0.548
			h0.541v6.794h-0.67V174.72z"/>
		<path fill="#58595B" d="M236.091,174.72c-0.497,0.159-1.064,0.292-1.516,0.367l-0.032-0.622c0.662-0.117,1.283-0.352,1.677-0.548
			h0.541v6.794h-0.67V174.72z"/>
	</g>
	<line fill="none" stroke="#231F20" stroke-width="2" x1="229.186" y1="167.643" x2="229.216" y2="171.854"/>
	<line fill="none" stroke="#231F20" stroke-width="2" x1="273.711" y1="167.613" x2="273.745" y2="171.824"/>
	<line fill="none" stroke="#231F20" stroke-width="2" x1="318.234" y1="167.584" x2="318.274" y2="171.797"/>
	<g>
		<path fill="#58595B" d="M264.517,173.985c0.532-0.105,1.169-0.195,1.828-0.195c1.231,0,2.08,0.394,2.08,1.599
			c0,1.257-0.665,1.972-1.767,2.474c-1.072,0.49-1.305,1.064-1.439,2.132h3.203v0.661h-3.997c0.313-1.972,0.523-2.711,1.853-3.337
			c0.848-0.399,1.469-0.884,1.469-1.749c0-0.869-0.473-1.131-1.709-1.131c-0.508,0-1.094,0.078-1.456,0.142L264.517,173.985z"/>
		<path fill="#58595B" d="M269.537,177.259c0-2.327,0.367-3.469,2.182-3.469c1.815,0,2.188,1.142,2.188,3.469
			c0,2.326-0.373,3.469-2.188,3.469C269.904,180.728,269.537,179.585,269.537,177.259z M273.228,177.259
			c0-1.687-0.062-2.841-1.51-2.841c-1.447,0-1.504,1.154-1.504,2.841c0,1.683,0.057,2.841,1.504,2.841
			C273.167,180.1,273.228,178.941,273.228,177.259z"/>
		<path fill="#58595B" d="M276.34,174.664c-0.497,0.159-1.064,0.292-1.516,0.367l-0.032-0.622c0.662-0.117,1.283-0.352,1.677-0.548
			h0.541v6.794h-0.67V174.664z"/>
		<path fill="#58595B" d="M278.253,173.985c0.532-0.105,1.169-0.195,1.828-0.195c1.231,0,2.08,0.394,2.08,1.599
			c0,1.257-0.665,1.972-1.767,2.474c-1.072,0.49-1.305,1.064-1.439,2.132h3.203v0.661h-3.997c0.313-1.972,0.523-2.711,1.853-3.337
			c0.848-0.399,1.469-0.884,1.469-1.749c0-0.869-0.473-1.131-1.709-1.131c-0.508,0-1.094,0.078-1.456,0.142L278.253,173.985z"/>
	</g>
	<g>
		<path fill="#58595B" d="M309.223,173.985c0.532-0.105,1.169-0.195,1.828-0.195c1.231,0,2.08,0.394,2.08,1.599
			c0,1.257-0.665,1.972-1.767,2.474c-1.072,0.49-1.305,1.064-1.439,2.132h3.203v0.661h-3.997c0.313-1.972,0.523-2.711,1.853-3.337
			c0.848-0.399,1.469-0.884,1.469-1.749c0-0.869-0.473-1.131-1.709-1.131c-0.508,0-1.094,0.078-1.456,0.142L309.223,173.985z"/>
		<path fill="#58595B" d="M314.244,177.259c0-2.327,0.367-3.469,2.182-3.469c1.815,0,2.188,1.142,2.188,3.469
			c0,2.326-0.373,3.469-2.188,3.469C314.611,180.728,314.244,179.585,314.244,177.259z M317.935,177.259
			c0-1.687-0.062-2.841-1.51-2.841c-1.447,0-1.504,1.154-1.504,2.841c0,1.683,0.057,2.841,1.504,2.841
			C317.874,180.1,317.935,178.941,317.935,177.259z"/>
		<path fill="#58595B" d="M321.046,174.664c-0.497,0.159-1.064,0.292-1.516,0.367l-0.032-0.622c0.662-0.117,1.283-0.352,1.677-0.548
			h0.541v6.794h-0.67V174.664z"/>
		<path fill="#58595B" d="M326.75,175.404c0,0.829-0.321,1.392-0.961,1.674c0.532,0.171,1.066,0.674,1.066,1.59
			c0,1.585-0.878,2.06-2.296,2.06c-0.643,0-1.204-0.075-1.704-0.184l0.076-0.613c0.459,0.066,0.967,0.145,1.437,0.145
			c1.202,0,1.785-0.276,1.785-1.355c0-0.746-0.41-1.176-1.034-1.248c-0.297-0.036-0.648-0.048-1.019-0.048
			c-0.081,0-0.164,0.003-0.248,0.003v-0.58c0.435-0.009,0.896-0.057,1.267-0.117c0.621-0.103,0.945-0.56,0.945-1.163
			c0-1.053-0.648-1.137-1.583-1.137c-0.516,0-0.999,0.063-1.493,0.142l-0.07-0.599c0.526-0.107,0.991-0.183,1.686-0.183
			C325.724,173.79,326.75,174.039,326.75,175.404z"/>
	</g>
	<g>
		<path fill="#E76E34" d="M117.127,109.75h0.78v7.857h-0.78V109.75z"/>
		<path fill="#E76E34" d="M120.257,117.607h-0.735v-4.56c0-0.351,0.009-0.694,0.027-1.024c0.613-0.297,1.47-0.503,2.441-0.503
			c1.843,0,2.031,0.968,2.031,2.186v3.901h-0.738v-3.753c0-1.134-0.182-1.646-1.54-1.646c-0.449,0-1.129,0.124-1.467,0.293
			c-0.015,0.283-0.021,0.657-0.021,0.94V117.607z"/>
		<path fill="#E76E34" d="M129.102,109.281h0.734v6.899c0,0.351-0.012,0.695-0.03,1.025c-0.595,0.348-1.348,0.482-2.031,0.482
			c-1.716,0-2.438-0.745-2.438-3.086c0-2.296,0.656-3.082,2.269-3.082c0.516,0,1.017,0.088,1.497,0.226V109.281z M127.841,112.198
			c-1.503,0-1.761,0.722-1.761,2.404c0,1.612,0.352,2.408,1.694,2.408c0.419,0,0.938-0.085,1.306-0.27
			c0.012-0.287,0.021-0.661,0.021-0.944v-3.362C128.764,112.307,128.257,112.198,127.841,112.198z"/>
		<path fill="#E76E34" d="M131.409,111.602h0.738v3.753c0,1.134,0.182,1.646,1.537,1.646c0.443,0,1.114-0.124,1.452-0.293
			c0.015-0.283,0.021-0.657,0.021-0.94v-4.165h0.735v4.56c0,0.351-0.009,0.694-0.027,1.024c-0.613,0.297-1.463,0.503-2.429,0.503
			c-1.84,0-2.025-0.968-2.025-2.186V111.602z"/>
		<path fill="#E76E34" d="M137.97,113.052c0,0.803,0.556,0.89,1.333,1.156c1.087,0.375,1.7,0.682,1.7,1.791
			c0,1.325-0.886,1.689-2.064,1.689c-0.58,0-1.151-0.061-1.722-0.199l0.073-0.644c0.443,0.08,0.941,0.142,1.391,0.142
			c0.635,0,1.57,0,1.57-0.941c0-0.762-0.479-0.896-1.324-1.177c-0.85-0.283-1.694-0.506-1.694-1.74c0-1.254,0.78-1.608,1.87-1.608
			c0.68,0,1.185,0.067,1.761,0.199l-0.073,0.634c-0.404-0.077-0.859-0.145-1.354-0.145
			C138.817,112.209,137.97,112.226,137.97,113.052z"/>
		<path fill="#E76E34" d="M143.646,109.905v1.696h1.206v0.647h-1.206v3.757c0,0.856,0.264,1.012,0.92,1.012
			c0.101,0,0.198-0.007,0.295-0.018l0.061,0.624c-0.182,0.034-0.407,0.064-0.586,0.064c-0.999,0-1.424-0.479-1.424-1.571v-3.868
			h-0.99v-0.647h0.99v-1.564L143.646,109.905z"/>
		<path fill="#E76E34" d="M146.075,117.607v-4.579c0-0.351,0.009-0.695,0.03-1.025c0.595-0.348,1.348-0.482,2.028-0.482
			c0.179,0,0.346,0.007,0.504,0.027l-0.061,0.694c-0.134-0.017-0.279-0.023-0.443-0.023c-0.416,0-0.935,0.088-1.303,0.273
			c-0.015,0.283-0.021,0.66-0.021,0.943v4.172H146.075z"/>
		<path fill="#E76E34" d="M149.661,109.801c0-0.441,0.101-0.601,0.443-0.601c0.343,0,0.447,0.159,0.447,0.601
			s-0.094,0.594-0.447,0.594C149.752,110.395,149.661,110.242,149.661,109.801z M149.737,111.602h0.738v6.006h-0.738V111.602z"/>
		<path fill="#E76E34" d="M152.02,111.729c0.616-0.107,1.242-0.209,2.01-0.209c1.151,0,2.062,0.327,2.062,1.824v2.836
			c0,0.351-0.012,0.695-0.03,1.025c-0.638,0.351-1.397,0.482-2.259,0.482c-1.448,0-2.107-0.492-2.107-1.794
			c0-1.042,0.395-1.7,1.36-1.861c0.659-0.111,1.485-0.146,2.311-0.176v-0.267c0-0.981-0.301-1.386-1.473-1.386
			c-0.625,0-1.23,0.081-1.807,0.172L152.02,111.729z M153.881,117.021c0.471,0,0.999-0.067,1.463-0.27
			c0.015-0.287,0.021-0.661,0.021-0.944v-1.335c-0.62,0.013-1.485,0.033-2.053,0.161c-0.617,0.139-0.887,0.412-0.887,1.241
			C152.427,116.798,152.864,117.021,153.881,117.021z"/>
		<path fill="#E76E34" d="M157.607,109.281h0.738v6.714c0,0.647,0.143,1.109,0.435,1.521l-0.626,0.357
			c-0.355-0.448-0.546-0.988-0.546-1.821V109.281z"/>
	</g>
	<g>
		<path fill="#BED63A" d="M213.953,87.78c-0.446,0.104-0.993,0.179-1.612,0.179c-2.287,0-2.839-1.221-2.839-4.01
			c0-2.792,0.556-4.009,2.839-4.009c0.61,0,1.166,0.071,1.612,0.172l-0.073,0.691c-0.386-0.064-0.826-0.125-1.236-0.125
			c-2.171,0-2.347,1.157-2.347,3.271c0,2.121,0.209,3.271,2.347,3.271c0.416,0,0.832-0.054,1.239-0.121L213.953,87.78z"/>
		<path fill="#BED63A" d="M214.834,84.873c0-2.246,0.632-3.083,2.375-3.083c1.746,0,2.375,0.867,2.375,3.083
			c0,2.205-0.628,3.085-2.375,3.085C215.466,87.958,214.834,87.122,214.834,84.873z M218.842,84.873
			c0-1.825-0.389-2.391-1.634-2.391c-1.218,0-1.63,0.486-1.63,2.391c0,1.902,0.413,2.394,1.63,2.394
			C218.444,87.267,218.842,86.701,218.842,84.873z"/>
		<path fill="#BED63A" d="M221.742,87.877h-0.734v-4.559c0-0.351,0.009-0.695,0.03-1.025c0.58-0.276,1.466-0.502,2.223-0.502
			c0.686,0,1.123,0.182,1.399,0.486c0.541-0.293,1.245-0.486,1.986-0.486c1.621,0,1.861,0.998,1.861,2.185v3.902h-0.735v-3.757
			c0-1.14-0.255-1.639-1.357-1.639c-0.392,0-0.959,0.125-1.421,0.398c0.101,0.324,0.131,0.698,0.131,1.096v3.902h-0.738v-3.757
			c0-1.14-0.252-1.639-1.357-1.639c-0.34,0-0.932,0.125-1.266,0.29c-0.016,0.283-0.021,0.658-0.021,0.941V87.877z"/>
		<path fill="#BED63A" d="M230.842,87.877h-0.734v-4.559c0-0.351,0.009-0.695,0.03-1.025c0.58-0.276,1.466-0.502,2.223-0.502
			c0.686,0,1.123,0.182,1.399,0.486c0.541-0.293,1.245-0.486,1.986-0.486c1.621,0,1.861,0.998,1.861,2.185v3.902h-0.735v-3.757
			c0-1.14-0.255-1.639-1.357-1.639c-0.392,0-0.959,0.125-1.421,0.398c0.101,0.324,0.131,0.698,0.131,1.096v3.902h-0.738v-3.757
			c0-1.14-0.252-1.639-1.357-1.639c-0.34,0-0.932,0.125-1.266,0.29c-0.016,0.283-0.021,0.658-0.021,0.941V87.877z"/>
		<path fill="#BED63A" d="M239.032,84.873c0-2.179,0.589-3.083,2.365-3.083c1.831,0,2.326,1.063,2.326,2.705
			c0,0.168-0.006,0.391-0.015,0.57c-0.62,0.115-1.901,0.25-2.657,0.283l-1.281,0.058c0.091,1.231,0.425,1.861,1.788,1.861
			c0.705,0,1.354-0.084,1.91-0.168l0.066,0.661c-0.619,0.104-1.241,0.199-2.265,0.199C239.5,87.958,239.032,86.653,239.032,84.873z
			 M241.182,84.711c0.474-0.023,1.287-0.094,1.785-0.165c0.009-0.122,0.012-0.297,0.012-0.422c0-1.018-0.4-1.666-1.582-1.666
			c-1.36,0-1.646,0.775-1.646,2.327L241.182,84.711z"/>
		<path fill="#BED63A" d="M245.065,87.877v-4.58c0-0.351,0.01-0.694,0.03-1.025c0.596-0.348,1.349-0.482,2.028-0.482
			c0.18,0,0.347,0.007,0.505,0.027l-0.062,0.695c-0.133-0.017-0.279-0.023-0.443-0.023c-0.416,0-0.935,0.087-1.302,0.273
			c-0.016,0.283-0.021,0.661-0.021,0.944v4.171H245.065z"/>
		<path fill="#BED63A" d="M252.025,87.783c-0.431,0.098-0.856,0.175-1.415,0.175c-1.821,0-2.158-1.423-2.158-3.15
			c0-1.966,0.4-3.018,2.353-3.018c0.477,0,0.875,0.071,1.212,0.172l-0.061,0.627c-0.24-0.047-0.607-0.101-0.902-0.101
			c-1.691,0-1.855,0.658-1.855,2.32c0,1.562,0.125,2.441,1.847,2.441c0.276,0,0.649-0.067,0.911-0.128L252.025,87.783z"/>
		<path fill="#BED63A" d="M253.132,80.071c0-0.442,0.1-0.6,0.443-0.6c0.343,0,0.446,0.158,0.446,0.6s-0.095,0.594-0.446,0.594
			C253.223,80.665,253.132,80.513,253.132,80.071z M253.208,81.872h0.738v6.006h-0.738V81.872z"/>
		<path fill="#BED63A" d="M255.49,82c0.617-0.108,1.242-0.209,2.011-0.209c1.15,0,2.062,0.327,2.062,1.825v2.836
			c0,0.351-0.012,0.694-0.03,1.025c-0.638,0.351-1.396,0.482-2.259,0.482c-1.449,0-2.107-0.493-2.107-1.794
			c0-1.042,0.395-1.7,1.36-1.862c0.658-0.111,1.484-0.145,2.311-0.175v-0.266c0-0.981-0.301-1.386-1.473-1.386
			c-0.626,0-1.229,0.081-1.807,0.172L255.49,82z M257.351,87.291c0.471,0,0.999-0.067,1.464-0.27
			c0.016-0.287,0.021-0.661,0.021-0.944v-1.335c-0.619,0.014-1.485,0.034-2.053,0.162c-0.616,0.138-0.887,0.411-0.887,1.241
			C255.897,87.068,256.334,87.291,257.351,87.291z"/>
		<path fill="#BED63A" d="M261.078,79.551h0.738v6.714c0,0.647,0.143,1.109,0.434,1.521l-0.625,0.357
			c-0.355-0.449-0.547-0.988-0.547-1.821V79.551z"/>
	</g>
	<g>
		<path fill="#00B0D8" d="M196.049,37.491h-1.934v7.142h-0.78v-7.142h-1.938v-0.715h4.652V37.491z"/>
		<path fill="#00B0D8" d="M196.409,44.633v-4.58c0-0.351,0.009-0.694,0.03-1.025c0.595-0.348,1.348-0.482,2.028-0.482
			c0.179,0,0.346,0.007,0.504,0.027l-0.061,0.695c-0.134-0.017-0.279-0.023-0.443-0.023c-0.416,0-0.935,0.087-1.303,0.273
			c-0.015,0.283-0.021,0.661-0.021,0.944v4.171H196.409z"/>
		<path fill="#00B0D8" d="M200.083,38.755c0.616-0.108,1.242-0.209,2.01-0.209c1.151,0,2.062,0.327,2.062,1.825v2.836
			c0,0.351-0.012,0.694-0.03,1.025c-0.638,0.351-1.397,0.482-2.259,0.482c-1.448,0-2.107-0.493-2.107-1.794
			c0-1.042,0.395-1.7,1.36-1.862c0.659-0.111,1.485-0.145,2.311-0.175v-0.266c0-0.981-0.301-1.386-1.473-1.386
			c-0.625,0-1.23,0.081-1.807,0.172L200.083,38.755z M201.945,44.046c0.471,0,0.999-0.067,1.463-0.27
			c0.015-0.287,0.021-0.661,0.021-0.944v-1.335c-0.62,0.014-1.485,0.034-2.053,0.162c-0.617,0.138-0.887,0.411-0.887,1.241
			C200.49,43.824,200.927,44.046,201.945,44.046z"/>
		<path fill="#00B0D8" d="M206.457,44.633h-0.735v-4.559c0-0.351,0.009-0.695,0.027-1.025c0.613-0.297,1.47-0.502,2.441-0.502
			c1.843,0,2.031,0.968,2.031,2.185v3.902h-0.738V40.88c0-1.133-0.182-1.646-1.54-1.646c-0.449,0-1.129,0.125-1.467,0.293
			c-0.015,0.283-0.021,0.658-0.021,0.941V44.633z"/>
		<path fill="#00B0D8" d="M212.28,40.078c0,0.802,0.556,0.89,1.333,1.157c1.087,0.374,1.7,0.681,1.7,1.791
			c0,1.325-0.886,1.689-2.064,1.689c-0.58,0-1.151-0.061-1.722-0.199l0.073-0.644c0.443,0.081,0.941,0.142,1.391,0.142
			c0.635,0,1.57,0,1.57-0.941c0-0.762-0.479-0.897-1.324-1.177c-0.85-0.283-1.694-0.506-1.694-1.74c0-1.255,0.78-1.609,1.87-1.609
			c0.68,0,1.185,0.067,1.761,0.199l-0.073,0.634c-0.404-0.078-0.859-0.145-1.354-0.145C213.127,39.234,212.28,39.251,212.28,40.078z
			"/>
		<path fill="#00B0D8" d="M217.3,46.846h-0.732v-6.792c0-0.351,0.009-0.694,0.027-1.025c0.595-0.348,1.348-0.482,2.032-0.482
			c1.718,0,2.438,0.746,2.438,3.085c0,2.297-0.656,3.083-2.269,3.083c-0.513,0-1.017-0.088-1.497-0.226V46.846z M218.561,44.037
			c1.503,0,1.764-0.722,1.764-2.405c0-1.612-0.355-2.408-1.697-2.408c-0.419,0-0.936,0.084-1.306,0.27
			c-0.012,0.287-0.021,0.661-0.021,0.944V43.8C217.637,43.929,218.145,44.037,218.561,44.037z"/>
		<path fill="#00B0D8" d="M222.292,41.629c0-2.246,0.632-3.083,2.375-3.083c1.746,0,2.374,0.867,2.374,3.083
			c0,2.205-0.628,3.085-2.374,3.085C222.923,44.714,222.292,43.878,222.292,41.629z M226.299,41.629
			c0-1.825-0.389-2.391-1.633-2.391c-1.218,0-1.631,0.486-1.631,2.391c0,1.902,0.413,2.394,1.631,2.394
			C225.902,44.023,226.299,43.457,226.299,41.629z"/>
		<path fill="#00B0D8" d="M228.458,44.633v-4.58c0-0.351,0.01-0.694,0.03-1.025c0.596-0.348,1.349-0.482,2.028-0.482
			c0.18,0,0.347,0.007,0.505,0.027l-0.062,0.695c-0.133-0.017-0.279-0.023-0.443-0.023c-0.416,0-0.935,0.087-1.302,0.273
			c-0.016,0.283-0.021,0.661-0.021,0.944v4.171H228.458z"/>
		<path fill="#00B0D8" d="M233.599,36.931v1.696h1.205v0.647h-1.205v3.757c0,0.856,0.264,1.011,0.92,1.011
			c0.1,0,0.197-0.006,0.294-0.017l0.061,0.624c-0.182,0.034-0.406,0.064-0.586,0.064c-0.999,0-1.424-0.479-1.424-1.572v-3.868h-0.99
			v-0.647h0.99v-1.565L233.599,36.931z"/>
		<path fill="#00B0D8" d="M236.067,38.755c0.617-0.108,1.242-0.209,2.011-0.209c1.15,0,2.062,0.327,2.062,1.825v2.836
			c0,0.351-0.012,0.694-0.03,1.025c-0.638,0.351-1.396,0.482-2.259,0.482c-1.449,0-2.107-0.493-2.107-1.794
			c0-1.042,0.395-1.7,1.36-1.862c0.658-0.111,1.484-0.145,2.311-0.175v-0.266c0-0.981-0.301-1.386-1.473-1.386
			c-0.626,0-1.229,0.081-1.807,0.172L236.067,38.755z M237.928,44.046c0.471,0,0.999-0.067,1.464-0.27
			c0.016-0.287,0.021-0.661,0.021-0.944v-1.335c-0.619,0.014-1.485,0.034-2.053,0.162c-0.616,0.138-0.887,0.411-0.887,1.241
			C236.474,43.824,236.912,44.046,237.928,44.046z"/>
		<path fill="#00B0D8" d="M242.923,36.931v1.696h1.205v0.647h-1.205v3.757c0,0.856,0.264,1.011,0.92,1.011
			c0.1,0,0.197-0.006,0.294-0.017l0.061,0.624c-0.182,0.034-0.406,0.064-0.586,0.064c-0.999,0-1.424-0.479-1.424-1.572v-3.868h-0.99
			v-0.647h0.99v-1.565L242.923,36.931z"/>
		<path fill="#00B0D8" d="M245.271,36.827c0-0.442,0.1-0.6,0.443-0.6c0.343,0,0.446,0.158,0.446,0.6s-0.095,0.594-0.446,0.594
			C245.362,37.42,245.271,37.269,245.271,36.827z M245.346,38.627h0.738v6.006h-0.738V38.627z"/>
		<path fill="#00B0D8" d="M247.483,41.629c0-2.246,0.632-3.083,2.375-3.083c1.746,0,2.374,0.867,2.374,3.083
			c0,2.205-0.628,3.085-2.374,3.085C248.115,44.714,247.483,43.878,247.483,41.629z M251.491,41.629
			c0-1.825-0.389-2.391-1.633-2.391c-1.218,0-1.631,0.486-1.631,2.391c0,1.902,0.413,2.394,1.631,2.394
			C251.093,44.023,251.491,43.457,251.491,41.629z"/>
		<path fill="#00B0D8" d="M254.388,44.633h-0.735v-4.559c0-0.351,0.01-0.695,0.027-1.025c0.614-0.297,1.47-0.502,2.441-0.502
			c1.844,0,2.032,0.968,2.032,2.185v3.902h-0.738V40.88c0-1.133-0.183-1.646-1.54-1.646c-0.449,0-1.129,0.125-1.466,0.293
			c-0.016,0.283-0.021,0.658-0.021,0.941V44.633z"/>
	</g>
	<g>
		<path fill="#74B64A" d="M76.484,52.741v-7.752c0.623-0.115,1.403-0.186,2.159-0.186c1.503,0,2.751,0.313,2.751,2.33
			c0,1.531-0.689,2.128-1.74,2.313l1.734,3.294h-0.911l-1.643-3.224h-0.109c-0.386,0-1.114-0.034-1.464-0.054v3.278H76.484z
			 M77.262,48.735c0.568,0.068,0.972,0.071,1.382,0.071c1.254,0,1.974-0.344,1.974-1.672c0-1.17-0.519-1.625-1.937-1.625
			c-0.398,0-0.911,0.03-1.418,0.104V48.735z"/>
		<path fill="#74B64A" d="M82.532,49.737c0-2.179,0.589-3.083,2.366-3.083c1.831,0,2.326,1.063,2.326,2.705
			c0,0.168-0.006,0.391-0.015,0.57c-0.619,0.115-1.901,0.25-2.657,0.283l-1.281,0.058c0.091,1.23,0.425,1.861,1.788,1.861
			c0.705,0,1.354-0.084,1.91-0.168l0.067,0.661c-0.62,0.104-1.242,0.199-2.265,0.199C83,52.822,82.532,51.517,82.532,49.737z
			 M84.682,49.575c0.474-0.023,1.288-0.094,1.786-0.165c0.009-0.122,0.012-0.297,0.012-0.422c0-1.018-0.401-1.666-1.582-1.666
			c-1.36,0-1.646,0.775-1.646,2.327L84.682,49.575z"/>
		<path fill="#74B64A" d="M89.124,48.186c0,0.802,0.556,0.89,1.333,1.156c1.087,0.375,1.7,0.682,1.7,1.791
			c0,1.325-0.886,1.689-2.064,1.689c-0.58,0-1.151-0.061-1.722-0.199l0.073-0.644c0.443,0.081,0.941,0.142,1.391,0.142
			c0.635,0,1.57,0,1.57-0.941c0-0.762-0.479-0.897-1.324-1.177c-0.85-0.283-1.694-0.506-1.694-1.74c0-1.254,0.78-1.608,1.87-1.608
			c0.68,0,1.185,0.067,1.761,0.199l-0.073,0.634c-0.404-0.078-0.859-0.145-1.354-0.145C89.971,47.342,89.124,47.359,89.124,48.186z"
			/>
		<path fill="#74B64A" d="M93.303,44.935c0-0.442,0.101-0.6,0.443-0.6c0.343,0,0.447,0.158,0.447,0.6s-0.094,0.594-0.447,0.594
			C93.395,45.528,93.303,45.376,93.303,44.935z M93.379,46.735h0.738v6.006h-0.738V46.735z"/>
		<path fill="#74B64A" d="M99.172,44.415h0.734v6.9c0,0.351-0.012,0.694-0.03,1.025c-0.595,0.348-1.348,0.482-2.031,0.482
			c-1.716,0-2.438-0.746-2.438-3.085c0-2.297,0.656-3.083,2.269-3.083c0.516,0,1.017,0.088,1.497,0.226V44.415z M97.912,47.332
			c-1.503,0-1.761,0.722-1.761,2.405c0,1.612,0.352,2.408,1.694,2.408c0.419,0,0.938-0.084,1.306-0.27
			c0.012-0.287,0.021-0.661,0.021-0.944v-3.362C98.835,47.44,98.328,47.332,97.912,47.332z"/>
		<path fill="#74B64A" d="M101.331,49.737c0-2.179,0.589-3.083,2.366-3.083c1.831,0,2.326,1.063,2.326,2.705
			c0,0.168-0.006,0.391-0.015,0.57c-0.619,0.115-1.901,0.25-2.657,0.283l-1.281,0.058c0.091,1.23,0.425,1.861,1.788,1.861
			c0.705,0,1.354-0.084,1.91-0.168l0.067,0.661c-0.62,0.104-1.242,0.199-2.265,0.199C101.798,52.822,101.331,51.517,101.331,49.737z
			 M103.48,49.575c0.474-0.023,1.288-0.094,1.786-0.165c0.009-0.122,0.012-0.297,0.012-0.422c0-1.018-0.401-1.666-1.582-1.666
			c-1.36,0-1.646,0.775-1.646,2.327L103.48,49.575z"/>
		<path fill="#74B64A" d="M108.102,52.741h-0.735v-4.559c0-0.351,0.009-0.695,0.027-1.025c0.613-0.296,1.47-0.502,2.441-0.502
			c1.843,0,2.031,0.968,2.031,2.185v3.902h-0.738v-3.753c0-1.133-0.182-1.646-1.54-1.646c-0.449,0-1.129,0.125-1.467,0.293
			c-0.015,0.283-0.021,0.658-0.021,0.941V52.741z"/>
		<path fill="#74B64A" d="M114.635,45.039v1.696h1.206v0.647h-1.206v3.757c0,0.856,0.264,1.011,0.92,1.011
			c0.101,0,0.198-0.006,0.295-0.017l0.061,0.624c-0.182,0.034-0.407,0.064-0.586,0.064c-0.999,0-1.424-0.479-1.424-1.572v-3.868
			h-0.99v-0.647h0.99V45.17L114.635,45.039z"/>
		<path fill="#74B64A" d="M116.982,44.935c0-0.442,0.101-0.6,0.443-0.6c0.343,0,0.447,0.158,0.447,0.6s-0.094,0.594-0.447,0.594
			C117.074,45.528,116.982,45.376,116.982,44.935z M117.059,46.735h0.738v6.006h-0.738V46.735z"/>
		<path fill="#74B64A" d="M119.341,46.863c0.616-0.108,1.242-0.209,2.01-0.209c1.151,0,2.062,0.327,2.062,1.824v2.836
			c0,0.351-0.012,0.694-0.03,1.025c-0.638,0.351-1.397,0.482-2.259,0.482c-1.448,0-2.107-0.493-2.107-1.794
			c0-1.042,0.395-1.7,1.36-1.862c0.659-0.111,1.485-0.145,2.311-0.175v-0.266c0-0.981-0.301-1.386-1.473-1.386
			c-0.625,0-1.23,0.081-1.807,0.172L119.341,46.863z M121.203,52.154c0.471,0,0.999-0.067,1.463-0.27
			c0.015-0.287,0.021-0.661,0.021-0.944v-1.335c-0.62,0.014-1.485,0.034-2.053,0.162c-0.617,0.138-0.887,0.411-0.887,1.241
			C119.748,51.932,120.185,52.154,121.203,52.154z"/>
		<path fill="#74B64A" d="M124.928,44.415h0.738v6.714c0,0.647,0.143,1.109,0.435,1.521l-0.626,0.357
			c-0.355-0.449-0.546-0.988-0.546-1.821V44.415z"/>
	</g>
	<g>
		<g>
			<g>
				<path fill="none" stroke="#E76E34" stroke-width="2" stroke-linecap="round" stroke-miterlimit="10" d="M347.341,103.945
					l-3.79,1.031l-3.789-1.126l-3.793-4.313l-3.789,4.313l-3.793,1.5l-3.789-0.749h-3.792l-3.79,1.311l-3.789-0.842l-3.793,0.094
					l-3.789-1.127l-3.792-3.373l-3.79-0.939l-3.79-0.373l-3.792,2.154l-3.792,3.471l-3.79,1.406l-3.79-0.75h-3.792l-3.791,0.188
					l-3.79-0.471l-3.79-0.187l-3.791-2.251l-3.791-3.562l-3.791-2.347l-3.791,0.845l-3.79,1.595l-3.79,4.313l-3.791,1.406h-3.791
					l-3.791-0.936l-3.791,0.908l-5.103,1.644c0,0-5.256-2.005-5.875-2.507c-0.619-0.502-3.866-2.843-5.412-3.178
					c-1.546-0.334-4.64-1.338-5.722-1.171c-1.081,0.167-5.102,4.515-5.721,5.015c-0.618,0.502-3.709,1.339-6.958,1.841
					c-3.248,0.502-14.534,2.173-15.926,1.504c-1.392-0.669-6.802-5.089-7.885-5.72c-1.082-0.632-8.194-1.469-9.586-1.134
					c-1.392,0.333-4.639,3.677-6.339,3.677c-1.7,0-8.04-2.747-9.432-2.543c-1.391,0.205-6.185,2.543-7.112,2.543
					c-0.928,0-9.123-3.677-9.123-3.677l-8.658-5.517l-6.494,7.857l-1.391,2.005c0,0-6.34,4.513-11.133,4.181
					c-4.793-0.334-12.679-1.169-12.679-1.169l-3.247-1.506l-2.164-0.837l-3.402-3.503c0,0-6.804,2.165-7.268,3.001
					c-0.463,0.837-5.875,3.345-5.875,3.345l-8.04,0.687l-4.42,0.65"/>
				<path fill="none" stroke="#BED63A" stroke-width="2" stroke-linecap="round" stroke-miterlimit="10" d="M347.341,69.246
					l-3.79,4.877l-3.789-5.815l-3.793-2.25l-3.789,4.596l-3.793,2.344l-3.789-0.281l-3.792-0.47l-3.79,2.438l-3.789-0.375
					l-3.793-0.564l-3.789-2.156l-3.792-4.127l-3.79,1.126l-3.79,0.093h-3.792l-3.792,3.845l-3.79,1.688l-3.79-0.47l-3.792-0.749
					l-3.791,1.219l-3.79,0.562l-3.79-1.969l-3.791-2.532l-3.791-3.189l-3.791-1.219l-3.791,0.469l-3.79,0.095l-3.79,4.407
					l-3.791,2.158l-3.791,0.281l-3.791-0.562l-3.791,2.469l-2.318,0.833l-1.855-0.668l-2.165-1.251l-4.02-2.761
					c0,0-3.093-2.842-7.422-3.845c-4.33-1.003-5.875,1.003-7.731,2.219c-1.855,1.215-5.721,4.387-7.267,4.387
					c-1.545,0-1.856,0-2.938,0s-4.33,1.085-5.634,1.921c-1.305,0.835-3.334,1.505-5.189,1.337c-1.855-0.167-3.711-0.835-3.711-0.835
					s-2.628-3.678-6.03-5.852c-3.401-2.174-8.813-1.505-10.823-1.672c-2.01-0.167-5.102,5.101-5.102,5.101s-4.329,1.42-5.257,1.42
					s-4.793-2.508-5.566-3.093c-0.774-0.584-2.879,2.424-2.879,2.424l-2.532-0.751l-2.164-0.754l-3.681-2.544l-6.37-3.642
					l-3.866-4.346h-3.247l-4.021,1.508l-2.164,2.504l-1.855,2.887l-0.774,2.63l-1.546,1.757l-3.402,1.587l-2.474,0.835l-4.33,0.669
					l-1.082,1.671l-5.103,0.334l-2.475-0.668l-1.7-1.337l-1.856-0.669l-4.775-0.668l-2.337-1.754l-3.557-1.757h-2.783l-3.161,2.142
					l-2.25,3.375L63.69,79.53l-4.948,1.255l-3.557-1.255l-4.109,2.508"/>
				<polyline fill="none" stroke="#00A551" stroke-width="2" stroke-linecap="round" stroke-miterlimit="10" points="
					347.341,71.404 343.551,72.623 339.762,71.685 335.969,66.058 332.18,68.403 328.387,70.465 324.598,70.747 320.806,68.777 
					317.016,70.747 313.227,71.311 309.434,69.81 305.645,73.747 301.853,68.965 298.063,69.903 294.273,67.278 290.481,70.56 
					286.689,74.874 282.899,72.436 279.109,74.217 275.317,76.843 271.526,75.53 267.736,74.592 263.946,73.279 260.155,70.278 
					256.364,65.12 252.573,64.933 248.782,61.276 244.992,63.15 241.202,66.058 237.411,72.904 233.62,70.373 229.829,67.464 
					226.038,69.618 222.327,71.506 216.605,67.326 214.287,63.481 212.896,61.642 210.113,60.137 205.319,60.137 202.69,60.137 
					199.135,62.31 197.589,64.32 197.125,64.32 194.96,62.812 194.032,62.144 191.713,64.32 190.321,65.822 188.156,66.992 
					185.529,66.323 182.59,69.333 177.642,70.001 175.323,69.5 172.23,65.822 169.448,68.162 166.664,68.831 163.572,67.828 
					162.335,65.822 161.252,64.32 160.325,64.32 157.233,67.326 153.677,62.812 150.12,68.998 143.626,69.333 139.533,70.001 
					138.497,70.001 135.896,67.159 130.948,71.506 128.474,71.506 126.618,68.329 124.917,60.806 122.753,56.125 120.923,54.542 
					118.27,54.542 113.721,56.705 111.806,59.698 111.806,63.024 110.075,65.988 108.374,69.165 106.363,71.506 102.498,72.676 
					100.18,72.676 96.933,77.023 92.603,81.203 87.964,83.71 87.964,84.88 85.335,80.199 83.481,77.691 81.161,76.188 
					78.378,74.098 73.431,68.998 68.019,75.518 62.452,78.694 60.631,72.174 58.433,61.475 55.185,79.53 52.827,83.876 
					51.076,84.212 				"/>
				<polyline fill="none" stroke="#00B0D8" stroke-width="2" stroke-linecap="round" stroke-miterlimit="10" points="
					347.341,54.804 343.551,56.211 339.762,58.837 335.969,48.803 332.18,50.116 328.387,54.617 324.598,57.711 320.806,57.524 
					317.016,58.837 313.227,57.429 309.434,56.304 305.645,53.585 301.853,50.772 298.063,52.272 294.273,53.866 290.481,53.023 
					286.689,54.43 282.899,54.711 279.109,56.493 275.317,58.369 271.526,59.587 267.736,59.493 263.946,55.93 260.155,53.117 
					256.364,52.272 252.573,53.023 248.782,53.023 244.992,54.147 241.202,54.523 237.411,56.961 233.62,58.369 229.829,62.683 
					226.038,64.392 224.338,64.32 222.946,64.32 222.018,62.979 221.245,61.809 220.008,59.803 219.234,58.299 217.843,56.96 
					215.988,55.958 212.277,55.958 207.948,55.456 202.072,54.542 196.815,55.623 194.497,57.128 193.104,58.632 190.939,62.144 
					189.238,63.314 187.229,64.32 185.529,66.323 184.275,68.817 180.937,67.087 178.136,64.32 172.936,58.435 167.333,54.542 
					162.932,54.542 157.731,57.138 153.33,57.57 148.93,59.732 145.329,61.464 138.497,64.32 136.127,66.222 134.126,64.32 
					131.326,58.435 128.524,57.138 124.524,54.542 120.923,54.542 116.922,54.542 113.721,56.705 110.121,62.329 106.52,64.492 
					103.319,68.213 99.317,71.846 94.792,71.414 89.316,68.213 84.114,65.356 79.713,64.492 72.111,62.329 67.711,64.492 
					66.11,67.087 60.631,68.817 56.908,71.846 54.507,74.098 51.076,71.846 				"/>
			</g>
		</g>
	</g>
</g>
</svg>
